<svg width="46" height="37" viewBox="0 0 46 37" fill="none" xmlns="http://www.w3.org/2000/svg">
<path fill-rule="evenodd" clip-rule="evenodd" d="M10.2398 0.738525C7.6753 0.738525 5.7761 2.98341 5.86151 5.418C5.94467 7.75706 5.83678 10.7864 5.07485 13.2567C4.31067 15.7344 3.01605 17.3039 0.90332 17.5055V19.7803C3.01605 19.9819 4.31067 21.5514 5.07485 24.0294C5.83678 26.4995 5.94467 29.529 5.86151 31.8678C5.7761 34.3022 7.6753 36.5473 10.2398 36.5473H36.5208C39.0875 36.5473 40.9845 34.3026 40.8991 31.8678C40.8182 29.529 40.9238 26.4995 41.6858 24.0294C42.4522 21.5514 43.7423 19.9819 45.855 19.7803V17.5055C43.7423 17.3039 42.4522 15.7344 41.6858 13.2567C40.9238 10.7866 40.8182 7.75684 40.8991 5.418C40.9845 2.98386 39.0875 0.738525 36.5208 0.738525H10.2398ZM31.3784 22.781C31.3784 26.1335 28.879 28.1667 24.7277 28.1667H17.6658C17.5658 28.1668 17.4667 28.1471 17.3742 28.1088C17.2817 28.0706 17.1977 28.0144 17.1269 27.9437C17.0562 27.8729 17 27.7889 16.9618 27.6964C16.9235 27.604 16.9038 27.5049 16.9039 27.4048V9.88125C16.9037 9.78115 16.9234 9.68201 16.9616 9.5895C16.9998 9.49699 17.0559 9.41294 17.1267 9.34216C17.1975 9.27138 17.2816 9.21526 17.3741 9.17702C17.4666 9.13878 17.5657 9.11917 17.6658 9.11932H24.6895C28.1486 9.11932 30.4186 10.9936 30.4186 13.8712C30.4186 15.8908 28.8925 17.6993 26.9461 18.0157V18.1214C29.596 18.4122 31.3784 20.2467 31.3784 22.781ZM23.9591 11.5346H19.9314V17.2237H23.323C25.9459 17.2237 27.3911 16.1675 27.3911 14.28C27.3911 12.5112 26.1482 11.5346 23.9591 11.5346ZM19.9314 19.4811V25.7508H24.1074C26.836 25.7508 28.2834 24.6551 28.2834 22.5961C28.2834 20.5366 26.7955 19.4807 23.9321 19.4807L19.9314 19.4811Z" fill="white"/>
</svg>
