<svg width="46" height="46" viewBox="0 0 46 46" fill="none" xmlns="http://www.w3.org/2000/svg">
<path fill-rule="evenodd" clip-rule="evenodd" d="M23.2344 0.468872C35.6478 0.468872 45.7103 10.7851 45.7103 23.5131C45.7103 33.6925 39.2777 42.3279 30.3525 45.3779C29.213 45.6049 28.8084 44.8852 28.8084 44.2716C28.8084 43.5119 28.8354 41.0306 28.8354 37.9469C28.8354 35.7982 28.1162 34.3959 27.3093 33.6812C32.3146 33.1103 37.574 31.1615 37.574 22.3105C37.574 19.7932 36.7019 17.7389 35.259 16.1251C35.4927 15.543 36.2637 13.1992 35.0387 10.0256C35.0387 10.0256 33.1553 9.40797 28.8646 12.3883C27.0688 11.8781 25.1448 11.6214 23.2344 11.6124C21.324 11.6214 19.4023 11.8781 17.6087 12.3883C13.3136 9.40797 11.4256 10.0256 11.4256 10.0256C10.2051 13.1992 10.9761 15.543 11.2076 16.1251C9.77136 17.7389 8.89254 19.7932 8.89254 22.3105C8.89254 31.139 14.1407 33.1177 19.1326 33.6999C18.4897 34.2753 17.9076 35.2903 17.7053 36.7804C16.4242 37.3693 13.1697 38.3883 11.1649 34.8664C11.1649 34.8664 9.97589 32.6523 7.71931 32.4904C7.71931 32.4904 5.52793 32.4612 7.56649 33.8907C7.56649 33.8907 9.03865 34.5987 10.0613 37.2621C10.0613 37.2621 11.3806 41.3752 17.6334 39.9817C17.6446 41.9078 17.6649 43.7232 17.6649 44.2716C17.6649 44.8807 17.2513 45.5934 16.1298 45.3799C7.19788 42.3344 0.758545 33.6947 0.758545 23.5131C0.758545 10.7851 10.8232 0.468872 23.2344 0.468872Z" fill="white"/>
</svg>
