<svg width="46" height="45" viewBox="0 0 46 45" fill="none" xmlns="http://www.w3.org/2000/svg">
<path fill-rule="evenodd" clip-rule="evenodd" d="M0.282715 -0.00756836H45.2344V44.9441H0.282715V-0.00756836ZM34.646 37.6761C32.5625 37.6761 31.3848 36.5894 30.479 35.1112L27.047 37.1055C28.2854 39.5556 30.8207 41.4249 34.7427 41.4249C38.7547 41.4249 41.7439 39.3416 41.7439 35.5384C41.7439 32.0109 39.7166 30.4418 36.1272 28.9027L35.0709 28.4505C33.2593 27.6656 32.4749 27.1527 32.4749 25.8853C32.4749 24.8602 33.2593 24.0751 34.4955 24.0751C35.7092 24.0751 36.4891 24.5866 37.2151 25.8853L40.5033 23.7735C39.112 21.3258 37.1813 20.3911 34.4955 20.3911C30.724 20.3911 28.3101 22.803 28.3101 25.9709C28.3101 29.4102 30.3352 31.037 33.3829 32.3356L34.4393 32.7885C36.3654 33.6314 37.514 34.1443 37.514 35.5926C37.514 36.8016 36.3969 37.6761 34.646 37.6761ZM18.2746 37.6498C16.825 37.6498 16.2203 36.6544 15.5573 35.4771L12.1185 37.559C13.1142 39.667 15.0741 41.4172 18.4545 41.4172C22.1989 41.4172 24.7634 39.4265 24.7634 35.0527V20.6322H20.538V34.9957C20.538 37.1068 19.6637 37.6498 18.2746 37.6498Z" fill="white"/>
</svg>
