<svg width="46" height="35" viewBox="0 0 46 35" fill="none" xmlns="http://www.w3.org/2000/svg">
<path d="M21.9648 26.1018C21.9244 26.1778 21.9446 26.1441 21.9648 26.1018V26.1018ZM39.4623 19.9913C38.0508 19.9913 36.6573 20.3143 35.3897 20.9396C34.9761 20.1037 34.5468 19.3732 34.4772 18.8253C34.3918 18.1863 34.3019 17.8069 34.3985 17.0483C34.4974 16.2898 34.9402 15.2152 34.9334 15.1379C34.9267 15.0606 34.8345 14.6744 33.9288 14.6672C33.023 14.6605 32.2431 14.843 32.1509 15.0817C31.9905 15.5179 31.8665 15.9666 31.7801 16.4233C31.6182 17.245 29.9685 20.181 29.0335 21.7121C28.7256 21.1151 28.4649 20.5883 28.4087 20.1669C28.3255 19.5276 28.2334 19.1485 28.3323 18.3899C28.4312 17.6314 28.8739 16.5568 28.865 16.4795C28.8582 16.4021 28.7683 16.0158 27.8625 16.0088C26.959 16.0019 26.1768 16.1844 26.0869 16.4233C25.9948 16.662 25.8959 17.2239 25.7138 17.7649C25.5318 18.3056 23.3336 23.1941 22.7582 24.4654C22.4638 25.1115 22.2098 25.6314 22.0278 25.9825C21.9986 26.0387 21.9783 26.0737 21.9648 26.1018C21.9851 26.0668 21.9986 26.0317 21.9986 26.0456C21.9192 26.2037 21.8375 26.3606 21.7536 26.5163V26.5233C21.6345 26.748 21.5018 26.9519 21.4367 26.9519C21.3962 26.9519 21.3041 26.3619 21.4591 25.5541C21.7895 23.8542 22.5695 21.2133 22.5605 21.1221C22.5537 21.0729 22.7088 20.6164 22.048 20.3705C21.4097 20.1388 21.1782 20.5251 21.122 20.5251C21.0658 20.5251 21.0231 20.6656 21.0231 20.6656C21.0231 20.6656 21.7333 17.6875 19.6611 17.6875C18.3687 17.6875 16.5707 19.1062 15.6874 20.3916C15.1322 20.6937 13.9297 21.3468 12.6666 22.0422C12.1811 22.309 11.6821 22.583 11.2124 22.8428C11.1764 22.8078 11.1495 22.7727 11.1135 22.7376C8.60072 20.0545 3.95944 18.1582 4.15498 14.5549C4.22465 13.2416 4.68093 9.7929 13.0802 5.60677C19.9645 2.1792 25.4666 3.12027 26.4151 5.21344C27.7771 8.19846 23.4707 13.7543 16.3234 14.5549C13.5993 14.8569 12.1676 13.8035 11.8103 13.4102C11.4372 12.9957 11.381 12.9746 11.2416 13.0519C11.0079 13.1782 11.1562 13.5434 11.2416 13.7612C11.4506 14.3162 12.3295 15.2995 13.8263 15.791C15.1389 16.2196 18.3328 16.4586 22.1941 14.9623C26.5342 13.2906 29.9123 8.63404 28.9211 4.73583C27.912 0.77446 21.3445 -0.524869 15.1322 1.68046C11.4327 2.99395 7.42971 5.05881 4.55056 7.74894C1.12973 10.9518 0.583563 13.7401 0.808321 14.9062C1.61071 19.0431 7.3106 21.7402 9.5919 23.7349C9.47952 23.7981 9.37613 23.8542 9.27724 23.9104C8.13097 24.4795 3.78638 26.7552 2.6963 29.1572C1.46687 31.8824 2.90085 33.8351 3.84034 34.1019C6.77569 34.9166 9.78071 33.4487 11.3967 31.0395C13.0127 28.6304 12.8149 25.4837 12.071 24.0509C12.0643 24.03 12.0508 24.0158 12.0418 23.9947C12.3385 23.8192 12.6396 23.6436 12.9408 23.4681C13.5252 23.1238 14.0938 22.8078 14.5928 22.5338C14.3118 23.2923 14.1073 24.2055 14.0017 25.526C13.8758 27.0712 14.5141 29.0729 15.3435 29.8596C15.7098 30.2037 16.1504 30.2109 16.4246 30.2109C17.3955 30.2109 17.8293 29.41 18.3148 28.4548C18.9126 27.289 19.4386 25.9333 19.4386 25.9333C19.4386 25.9333 18.7778 29.5997 20.5826 29.5997C21.2434 29.5997 21.9042 28.7499 22.1986 28.3144V28.3213C22.1986 28.3213 22.2121 28.2932 22.248 28.237C22.3177 28.1318 22.3537 28.0685 22.3537 28.0685V28.0476C22.6212 27.5909 23.2033 26.5444 24.0821 24.8167C25.2194 22.583 26.3072 19.7947 26.3072 19.7947C26.4134 20.4072 26.5583 21.0124 26.741 21.6067C26.9388 22.274 27.3523 23.0044 27.6827 23.7138C27.4153 24.079 27.2557 24.2898 27.2557 24.2898C27.2557 24.2954 27.2579 24.2997 27.2624 24.3038C27.0511 24.5847 26.8129 24.8868 26.5657 25.1819C25.6689 26.2495 24.599 27.4715 24.4597 27.8228C24.2911 28.237 24.3338 28.5461 24.6552 28.785C24.8957 28.9675 25.316 28.9956 25.7588 28.9605C26.5657 28.9043 27.1343 28.7077 27.4085 28.5814C27.9141 28.4 28.3922 28.1494 28.829 27.8367C29.7055 27.1906 30.2405 26.2634 30.191 25.0414C30.1618 24.3671 29.9438 23.6929 29.6786 23.0606C29.755 22.9482 29.8404 22.8289 29.9168 22.7095C31.3058 20.6795 32.3824 18.4517 32.3824 18.4517C32.4873 19.0648 32.6329 19.6701 32.8184 20.2637C32.987 20.8328 33.3152 21.4579 33.6186 22.069C32.3128 23.1294 31.5036 24.3586 31.2249 25.1664C30.7057 26.6624 31.1125 27.3367 31.8767 27.4913C32.2228 27.5614 32.7128 27.3998 33.0792 27.2454C33.6211 27.0646 34.132 26.8017 34.594 26.4657C35.4729 25.8195 36.3224 24.9135 36.264 23.6843C36.2438 23.1294 36.0887 22.5747 35.8864 22.0409C36.9877 21.5772 38.4217 21.3244 40.2467 21.5352C44.1575 21.9917 44.924 24.4359 44.7756 25.4543C44.6295 26.4727 43.8069 27.0418 43.5327 27.2103C43.2585 27.3789 43.1753 27.4421 43.1956 27.5684C43.2315 27.7511 43.3574 27.7441 43.5889 27.7019C43.9125 27.6457 45.6409 26.8732 45.7173 24.9837C45.8297 22.5956 43.5327 19.9688 39.4668 19.99L39.4623 19.9913ZM9.31995 30.1547C8.02759 31.5664 6.21603 32.1002 5.43612 31.6507C4.60002 31.1645 4.93041 29.0871 6.52394 27.5825C7.49265 26.6693 8.74232 25.8265 9.57168 25.3069C9.76048 25.1945 10.0347 25.0259 10.3718 24.8223C10.428 24.787 10.4572 24.7731 10.4572 24.7731C10.5202 24.7308 10.5898 24.6957 10.6595 24.6537C11.2416 26.7889 10.682 28.6726 9.31995 30.1547ZM18.7553 23.7349C18.3058 24.8376 17.3596 27.647 16.7819 27.4996C16.2897 27.3733 15.9885 25.2309 16.683 23.1238C17.0359 22.0634 17.7799 20.7991 18.2226 20.3073C18.9306 19.5137 19.7105 19.2609 19.8948 19.5769C20.1398 19.9913 19.0363 23.0467 18.7553 23.7349ZM26.5522 27.4576C26.3634 27.5558 26.1881 27.6189 26.1027 27.57C26.0397 27.5347 26.1791 27.4014 26.1791 27.4014C26.1791 27.4014 27.1568 26.3547 27.5434 25.8771C27.7681 25.5961 28.0266 25.2662 28.3076 24.9009C28.3076 24.936 28.3143 24.9711 28.3143 25.0133C28.3075 26.2704 27.1006 27.1204 26.5522 27.4576ZM32.5645 26.0879C32.4251 25.9895 32.4454 25.6595 32.9151 24.6339C33.0994 24.2336 33.5197 23.5594 34.2502 22.9132C34.3333 23.1575 34.3783 23.4133 34.3828 23.6717C34.376 25.252 33.2455 25.842 32.5645 26.0879Z" fill="white"/>
</svg>
