<svg width="40" height="24" viewBox="0 0 40 24" fill="none" xmlns="http://www.w3.org/2000/svg">
<path d="M10.1667 8.2374C11.477 2.99311 14.7563 0.37085 19.9999 0.37085C27.8664 0.37085 28.8508 6.27076 32.7841 7.25408C35.4048 7.9097 37.6996 6.92638 39.6662 4.30412C38.3559 9.54842 35.0767 12.1707 29.8331 12.1707C21.9665 12.1707 20.9821 6.27076 17.0488 5.28744C14.4281 4.63182 12.1333 5.61514 10.1667 8.2374ZM0.333496 20.0372C1.64384 14.7929 4.92307 12.1707 10.1667 12.1707C18.0332 12.1707 19.0176 18.0706 22.9509 19.0539C25.5716 19.7095 27.8664 18.7262 29.8331 16.1039C28.5227 21.3482 25.2435 23.9705 19.9999 23.9705C12.1333 23.9705 11.1511 18.0706 7.21782 17.0873C4.59489 16.4316 2.30013 17.415 0.333496 20.0372Z" fill="white"/>
</svg>
