<svg width="46" height="45" viewBox="0 0 46 45" fill="none" xmlns="http://www.w3.org/2000/svg">
<path d="M0.662109 22.4683V44.9441H45.6138V-0.00756836H0.662109V22.4683ZM36.8864 20.6776C38.0305 20.9624 38.898 21.4699 39.6982 22.2979C40.1117 22.7398 40.7276 23.5453 40.7748 23.74C40.7905 23.7962 38.8351 25.1074 37.6506 25.8435C37.6079 25.8716 37.4371 25.6862 37.2461 25.4014C36.6639 24.5585 36.0594 24.1951 35.1334 24.1315C33.7691 24.0378 32.8925 24.7514 32.8992 25.9426C32.8876 26.2355 32.9535 26.5262 33.0903 26.7854C33.3915 27.4056 33.9489 27.7782 35.6953 28.5329C38.9138 29.919 40.2916 30.8311 41.1456 32.1291C42.1009 33.577 42.3166 35.8902 41.667 37.6096C40.9546 39.4787 39.1857 40.7486 36.6954 41.1682C35.9245 41.3049 34.0995 41.2844 33.2701 41.1345C31.4653 40.8124 29.7526 39.9208 28.6962 38.7502C28.2827 38.2951 27.4758 37.1019 27.5253 37.0176C27.5477 36.9877 27.7321 36.8735 27.9388 36.7535C28.1411 36.6393 28.8963 36.2028 29.6088 35.7891L30.9011 35.0397L31.1731 35.4407C31.5507 36.0174 32.3778 36.8097 32.8768 37.0738C34.313 37.8305 36.2796 37.7238 37.2506 36.8528C37.4458 36.6886 37.6003 36.4813 37.7021 36.2474C37.8038 36.0134 37.8501 35.7591 37.8372 35.5043C37.8372 34.9835 37.772 34.7552 37.5 34.3618C37.1516 33.8635 36.4369 33.4439 34.4118 32.5638C32.0923 31.5654 31.0944 30.9455 30.1797 29.9602C29.61 29.3095 29.1889 28.5425 28.9457 27.7126C28.7749 27.0776 28.7322 25.4857 28.8671 24.8451C29.3458 22.6031 31.036 21.0429 33.4769 20.5785C34.268 20.4286 36.111 20.4848 36.8864 20.6776ZM26.334 22.5544L26.3498 24.3956H20.4971V41.0203H16.357V24.3956H10.511V22.5901C10.511 21.5899 10.5313 20.7545 10.5582 20.7358C10.5807 20.7057 14.1431 20.6909 18.4585 20.6983L26.3138 20.7208L26.334 22.5544Z" fill="white"/>
</svg>
