<svg width="28" height="28" viewBox="0 0 28 28" fill="none" xmlns="http://www.w3.org/2000/svg">
<path fill-rule="evenodd" clip-rule="evenodd" d="M14.2521 0.658325C13.0632 3.55816 12.3462 5.45557 11.0223 8.26933C11.8337 9.12453 12.8294 10.1218 14.4476 11.2474C12.708 10.5353 11.5213 9.82084 10.6357 9.07891C8.94107 12.595 6.2844 17.6047 0.896942 27.2324C5.13139 24.8014 8.41513 23.3028 11.4741 22.7303C11.3415 22.1684 11.2673 21.5609 11.2741 20.9271L11.2786 20.7917C11.346 18.0937 12.7574 16.0183 14.4274 16.1597C16.0996 16.3002 17.401 18.603 17.3336 21.3011C17.3201 21.8092 17.2616 22.2974 17.1605 22.7505C20.188 23.3396 23.4358 24.8347 27.6118 27.2324C26.7892 25.725 26.0542 24.3652 25.3529 23.0701C24.2449 22.2176 23.0919 21.1087 20.7386 19.9069C22.3569 20.3256 23.5144 20.8075 24.418 21.3467C17.2796 8.12795 16.6998 6.37214 14.2521 0.658325Z" fill="white"/>
</svg>
