<svg width="41" height="45" viewBox="0 0 41 45" fill="none" xmlns="http://www.w3.org/2000/svg">
<path d="M40.8017 0.036377L37.0626 40.5381L20.862 44.9L4.66115 40.5381L0.922729 0.036377H40.8017ZM33.2668 8.27153H8.20783L8.81222 13.1627H21.5234L20.8474 13.4441L9.25206 18.2733L9.63662 23.0541L20.8474 23.0905L26.8561 23.1096L26.4713 29.484L20.8474 31.0674V31.0625L20.8013 31.0753L15.3698 29.7043L15.0403 25.7472H9.96657L10.626 33.3861L20.8474 36.4088V36.4034L20.8658 36.4088L31.0325 33.4411L32.3514 18.2733H20.819L20.8474 18.2611L32.7728 13.1627L33.2668 8.27176V8.27153Z" fill="white"/>
</svg>
