<svg width="45" height="26" viewBox="0 0 45 26" fill="none" xmlns="http://www.w3.org/2000/svg">
<path d="M44.5772 25.0397C42.977 25.4469 41.9858 25.0572 41.098 23.7226C39.1021 20.734 36.9018 17.8824 34.7756 14.9781C34.5014 14.6023 34.2181 14.2335 33.863 13.7664C31.348 17.1589 28.8374 20.3899 26.4819 23.7507C25.6391 24.9518 24.7536 25.475 23.1802 25.05L32.6336 12.3617L23.8343 0.902607C25.3469 0.607499 26.3943 0.758535 27.3203 2.11428C29.3678 5.10626 31.6267 7.95441 33.8765 10.9675C36.1421 7.96497 38.3717 5.11323 40.4799 2.14934C41.325 0.948232 42.2353 0.491747 43.7569 0.934296C42.6039 2.46176 41.4779 3.96494 40.3428 5.45756C38.8122 7.46983 37.3086 9.50659 35.7218 11.4768C35.1554 12.1792 35.2475 12.6357 35.7532 13.2994C38.6886 17.1589 41.5902 21.0572 44.5772 25.0397ZM0.560565 12.1511C0.812295 10.8832 0.980851 9.59087 1.33372 8.34774C3.43971 0.821919 12.0794 -2.30717 18.013 2.35657C21.4901 5.09233 22.3554 8.94829 22.1823 13.296H2.58564C2.29121 21.0958 7.90793 25.8052 15.0642 23.403C17.5748 22.5601 19.0537 20.5935 19.7954 18.1353C20.1707 16.9025 20.7911 16.7094 21.9508 17.0607C21.3575 20.137 20.0134 22.7078 17.2039 24.3162C12.9897 26.7253 6.97292 25.9457 3.80832 22.5988C1.94057 20.6321 1.14714 18.1845 0.796518 15.54C0.742576 15.1186 0.634725 14.7041 0.549316 14.2863C0.556059 13.5745 0.560565 12.8627 0.560565 12.1511ZM2.62158 11.6279H20.3326C20.2157 5.98777 16.705 1.98077 11.9041 1.94571C6.63578 1.90346 2.85084 5.8156 2.62158 11.6279Z" fill="white"/>
</svg>
