<svg width="27" height="38" viewBox="0 0 27 38" fill="none" xmlns="http://www.w3.org/2000/svg">
<path fill-rule="evenodd" clip-rule="evenodd" d="M4.0923 13.1002C2.21354 11.8359 0.978271 9.68989 0.978271 7.25576C0.978271 3.54095 3.85518 0.497939 7.50257 0.233623V0.214966H19.9892V0.220364C23.7474 0.367806 26.7489 3.46116 26.7489 7.25576C26.7489 9.68989 25.5134 11.8357 23.6353 13.1002C25.5134 14.3644 26.7489 16.5104 26.7489 18.9448C26.7489 22.8333 23.5966 25.9856 19.7083 25.9856C17.9933 25.9881 16.3368 25.3621 15.052 24.2261V26.2105C15.0571 26.2798 15.0596 26.3499 15.0596 26.4207V33.0207C15.0596 35.5904 12.9759 37.6746 10.4058 37.6746H8.01906C4.13051 37.6746 0.978271 34.5223 0.978271 30.6338C0.978271 28.1997 2.21377 26.0539 4.0923 24.7894C2.21354 23.5249 0.978271 21.3791 0.978271 18.9448C0.978271 16.5106 2.21377 14.3646 4.0923 13.1002ZM3.80574 7.25576C3.80574 4.92861 5.69191 3.04221 8.01906 3.04221H12.2326V11.4693H8.01906C5.69191 11.4693 3.80574 9.58268 3.80574 7.25576ZM19.7083 11.4693H15.4947V3.04221H19.7083C22.0352 3.04221 23.9218 4.92861 23.9218 7.25576C23.9218 9.58268 22.0352 11.4693 19.7083 11.4693ZM8.01906 23.1583C5.69191 23.1583 3.80574 21.2717 3.80574 18.9448C3.80574 16.6178 5.69191 14.7312 8.01906 14.7312H12.2326V23.1583H8.01906ZM8.01906 34.8476C5.69191 34.8476 3.80574 32.9607 3.80574 30.6338C3.80574 28.3069 5.69191 26.4207 8.01906 26.4207H12.2326V33.0207C12.2326 33.2606 12.1854 33.4982 12.0935 33.7198C12.0017 33.9415 11.8672 34.1429 11.6975 34.3125C11.5279 34.4821 11.3265 34.6167 11.1049 34.7085C10.8832 34.8003 10.6457 34.8476 10.4058 34.8476H8.01906ZM19.7083 23.1583C22.0352 23.1583 23.9218 21.2717 23.9218 18.9448C23.9218 16.6176 22.0352 14.7312 19.7083 14.7312C17.3811 14.7312 15.4947 16.6178 15.4947 18.9448C15.4947 21.2717 17.3811 23.1583 19.7083 23.1583Z" fill="white"/>
</svg>
