<svg width="43" height="44" viewBox="0 0 43 44" fill="none" xmlns="http://www.w3.org/2000/svg">
<path d="M41.8824 20.0666L23.4859 1.67278C23.2338 1.4209 22.9345 1.22117 22.6052 1.08499C22.2758 0.94882 21.9229 0.878872 21.5665 0.879151C20.8158 0.879151 20.137 1.18258 19.6448 1.67278L15.8352 5.49097L20.6787 10.3359C20.9889 10.2278 21.344 10.166 21.7148 10.166C23.4972 10.166 24.9424 11.61 24.9424 13.3926C24.9424 13.7704 24.8772 14.1314 24.7581 14.4685L24.7648 14.446L29.4308 19.1154C29.7432 19.0046 30.1051 18.9399 30.4782 18.9399C32.2605 18.9399 33.7035 20.3839 33.7035 22.1651C33.7035 23.9463 32.2605 25.3904 30.4782 25.3904C28.6981 25.3904 27.2529 23.9463 27.2529 22.1651C27.2529 21.7255 27.3428 21.3068 27.5001 20.9247L27.4934 20.9458L23.1241 16.5997V28.0538C24.1962 28.5946 24.9199 29.6876 24.9199 30.9489C24.9199 32.7331 23.4747 34.1798 21.6901 34.1798C19.9055 34.1798 18.4581 32.7331 18.4581 30.9489C18.4581 30.0584 18.8177 29.2536 19.4021 28.6692C19.7009 28.37 20.0541 28.1306 20.4427 27.9639L20.4629 27.9556V16.3888C19.2807 15.8917 18.4648 14.7411 18.4648 13.4025C18.4648 12.953 18.557 12.5259 18.7233 12.1366L18.7143 12.1578L13.9539 7.37467L1.33823 19.9807C0.831673 20.4919 0.548043 21.1828 0.549323 21.9024C0.548546 22.259 0.618005 22.6122 0.753751 22.9419C0.889497 23.2717 1.08888 23.5714 1.34048 23.8241L19.737 42.215C19.9885 42.4677 20.2877 42.6681 20.6171 42.8046C20.9466 42.9411 21.2998 43.0109 21.6564 43.0101C22.4071 43.0101 23.0836 42.7067 23.5758 42.215L41.8847 23.9057C42.1374 23.6542 42.3378 23.3551 42.4744 23.0257C42.6109 22.6964 42.6809 22.3432 42.6803 21.9867C42.6803 21.238 42.3769 20.5581 41.8847 20.0679L41.8824 20.0666Z" fill="white"/>
</svg>
