<svg width="30" height="30" viewBox="0 0 30 30" fill="none" xmlns="http://www.w3.org/2000/svg">
<path d="M17.4012 0.650129C17.1989 0.650129 16.9988 0.694859 16.819 0.762062C17.1989 1.00885 17.4012 1.34508 17.5136 1.72627C17.5136 1.77122 17.536 1.81617 17.536 1.8609C17.536 1.90585 17.5585 1.95059 17.5585 1.99531C17.581 2.64576 17.3787 2.73544 17.2439 3.11663C17.0214 3.60975 17.0888 4.14805 17.3562 4.57397C17.3787 4.61892 17.4012 4.68635 17.4461 4.73107C17.1562 2.8476 18.725 2.57834 19.0172 1.99531C19.0397 1.47972 18.6126 1.14348 18.2755 0.896692C17.9406 0.694859 17.6709 0.649902 17.4012 0.649902V0.650129ZM19.7566 1.05335C19.7342 1.2327 19.7566 1.18797 19.7341 1.27765C19.7341 1.34486 19.7342 1.41206 19.7117 1.47949C19.6892 1.54669 19.6892 1.59164 19.6667 1.65885C19.6442 1.72627 19.6218 1.771 19.5993 1.8382C19.5769 1.88316 19.5544 1.92788 19.5319 1.99509C19.5094 2.01756 19.4869 2.06251 19.4644 2.08499C19.442 2.10746 19.442 2.12972 19.4195 2.15219C19.3746 2.19714 19.3521 2.26412 19.3071 2.30907L19.1745 2.4437C19.1296 2.48866 19.0846 2.53338 19.0397 2.55563C18.8823 2.66801 18.7025 2.75746 18.5452 2.86962C18.5002 2.91457 18.4328 2.93705 18.3878 2.98177C18.3429 3.02672 18.298 3.04921 18.253 3.09393L18.1204 3.22834C18.0754 3.27329 18.0305 3.31824 18.008 3.38544C17.9631 3.4304 17.9406 3.4976 17.8956 3.54232C17.8732 3.60975 17.8507 3.65448 17.8058 3.72168C17.7833 3.78911 17.7608 3.83406 17.7383 3.90104C17.7158 3.96847 17.6934 4.03567 17.6934 4.08039C17.6934 4.10287 17.6934 4.14783 17.6709 4.1703C17.6709 4.19278 17.6709 4.2375 17.6484 4.25998V4.57374C17.6484 4.64117 17.6484 4.68612 17.6709 4.7531C17.6709 4.82053 17.6933 4.86548 17.7158 4.93268C17.7383 4.99988 17.7608 5.04461 17.7833 5.11204C17.8057 5.15699 17.8282 5.17924 17.8282 5.22419L16.1245 4.57374C15.8434 4.48874 15.5593 4.414 15.2727 4.34965C15.1154 4.3047 14.958 4.28223 14.8007 4.23727C14.3555 4.14818 13.9062 4.08091 13.4544 4.03567H13.4095C12.9622 3.99072 12.5374 3.96824 12.0879 3.96824C11.7507 3.96824 11.4383 3.99072 11.1236 4.01319C10.6741 4.03567 10.2269 4.1031 9.77733 4.1703L9.44245 4.2375C9.21769 4.28245 8.99293 4.32718 8.76817 4.39438C8.65804 4.41686 8.54566 4.46181 8.43328 4.48429C8.3209 4.52902 8.20855 4.57374 8.11864 4.61869C8.02874 4.66365 7.96129 4.68612 7.87139 4.73085C7.84891 4.73085 7.84892 4.73085 7.82644 4.75332C7.75902 4.79805 7.69386 4.82052 7.62643 4.86525C7.60396 4.86525 7.58144 4.88773 7.58144 4.88773C7.49153 4.93268 7.42411 4.97763 7.35668 4.99988C7.31173 5.02236 7.24431 5.04484 7.19936 5.06731C7.17688 5.08956 7.1544 5.08956 7.13192 5.11204C7.06449 5.15699 6.99709 5.17924 6.92966 5.22397C6.86223 5.26892 6.79479 5.29139 6.74984 5.33635C6.70489 5.38107 6.63972 5.40355 6.59477 5.44827C6.59477 5.44827 6.57227 5.44827 6.57227 5.47075C6.52732 5.49323 6.4824 5.53818 6.43745 5.5829L6.41495 5.60538C6.37 5.62786 6.34753 5.67259 6.30258 5.69506C6.2801 5.69506 6.28011 5.71754 6.25763 5.71754C6.21268 5.74002 6.19021 5.78474 6.14526 5.80699C6.14526 5.82946 6.12276 5.82947 6.12276 5.82947L5.98794 5.9641L5.96544 5.98657L5.83062 6.12098C5.83062 6.12098 5.83284 6.14346 5.81037 6.14346L5.69799 6.25561C5.67551 6.27808 5.65305 6.27809 5.65305 6.30056L5.51817 6.43497C5.51817 6.45744 5.49573 6.45744 5.49573 6.47992L5.31591 6.65905L5.29341 6.68152C5.18103 6.81615 5.04619 6.92831 4.91133 7.04047C4.77873 7.1524 4.64389 7.26455 4.48656 7.37671C4.32923 7.48886 4.19438 7.57854 4.03705 7.66822C3.88196 7.75789 3.72461 7.82509 3.56728 7.89252C3.40995 7.95972 3.2526 8.02693 3.09527 8.07188C2.78285 8.13931 2.46819 8.27372 2.19848 8.29597C2.19848 8.18404 2.13109 8.20629 2.06366 8.20629C1.99848 8.22877 1.93104 8.22876 1.88609 8.25124C1.81866 8.27371 1.7737 8.29619 1.70627 8.31867C1.64109 8.33935 1.5804 8.36946 1.52646 8.40812C1.4815 8.45307 1.41409 8.47555 1.36914 8.5205C1.32418 8.56523 1.25677 8.60996 1.21182 8.65491C1.16686 8.69986 1.09945 8.74459 1.05675 8.78931C1.01179 8.83426 0.96682 8.87922 0.921868 8.94642C0.876916 9.01362 0.831965 9.05834 0.809489 9.12577C0.764537 9.17072 0.742061 9.23793 0.69711 9.30513C0.674634 9.37256 0.629704 9.43954 0.607228 9.50697L0.53979 9.7088C0.517314 9.776 0.517325 9.82073 0.494849 9.88816V9.91063C0.472373 9.97806 0.472351 10.0675 0.472351 10.1125C0.494827 10.09 0.494849 10.1349 0.494849 10.1797V10.2693C0.494849 10.3143 0.517292 10.359 0.517292 10.4038C0.539768 10.4487 0.539757 10.4937 0.562233 10.5384C0.584708 10.5833 0.607217 10.6281 0.652169 10.673C0.674645 10.718 0.719575 10.7627 0.74205 10.8074C0.787002 10.8524 0.831976 10.8973 0.876927 10.9196C0.921879 10.9645 0.966796 11.0095 1.0095 11.0317C1.18931 11.1886 1.23426 11.2336 1.45902 11.368C1.50397 11.3904 1.52644 11.4129 1.5714 11.4354H1.59389V11.4803C1.59389 11.5473 1.61636 11.5923 1.63883 11.6595C1.66131 11.7269 1.6838 11.7941 1.70627 11.8388L1.77371 11.9735C1.77371 11.9959 1.79615 11.9959 1.79615 12.0184C1.81863 12.0856 1.86362 12.1304 1.88609 12.1753C1.9288 12.2203 1.95127 12.2875 1.99622 12.3322L2.13104 12.4668L2.26592 12.6012H2.28842C2.33337 12.6462 2.37829 12.6686 2.42324 12.7136C2.46819 12.7585 2.53561 12.7808 2.58056 12.8031C2.62551 12.8255 2.69295 12.8705 2.76038 12.893C2.80533 12.9154 2.85032 12.9377 2.9155 12.9377C2.9155 12.9377 2.93795 12.9377 2.93795 12.9602C2.96042 12.9602 3.00541 12.9826 3.02788 12.9826C3.00541 13.3861 3.00537 13.7673 3.05033 13.9019C3.11775 14.0588 3.45488 13.5879 3.76954 13.0723C3.72459 13.5879 3.70211 14.1934 3.76954 14.3728C3.85945 14.5521 4.28426 13.9691 4.68882 13.3411C9.93469 12.1303 14.7333 15.7629 15.2502 20.898C15.1603 20.0906 14.1737 19.6422 13.7017 19.7544C13.4769 20.2925 13.097 21.0101 12.4902 21.436C12.5351 20.9427 12.5126 20.4493 12.4227 19.9562C12.2677 20.6289 11.953 21.2792 11.5035 21.8172C10.809 21.8622 10.092 21.5257 9.73239 21.0101C9.70992 20.9876 9.68743 20.9427 9.66495 20.9202C9.64248 20.8755 9.62005 20.8083 9.59757 20.7633C9.5751 20.7184 9.55258 20.6512 9.55258 20.6064V20.3374C9.55258 20.2925 9.5751 20.225 9.59757 20.1803C9.62005 20.1356 9.62229 20.0681 9.64476 20.0234C9.66499 19.9785 9.68744 19.9113 9.73239 19.8665C9.86725 19.5076 9.86725 19.2161 9.62001 19.0592L9.48744 18.9918C9.46497 18.9918 9.41998 18.9695 9.3975 18.9695C9.37503 18.9695 9.35254 18.9471 9.33007 18.9471C9.28511 18.9246 9.2177 18.9246 9.17275 18.9021C9.12779 18.8796 9.06038 18.8796 9.01543 18.8796C8.97047 18.8796 8.90306 18.8574 8.85811 18.8574H8.74573C8.6783 18.8574 8.63336 18.8574 8.59066 18.8798C8.5457 18.8798 8.47823 18.9023 8.43328 18.9023C8.38833 18.9248 8.32091 18.9248 8.27596 18.9473C8.23101 18.9695 8.18607 18.992 8.11864 19.0143L7.98376 19.0817C6.25762 20.2028 7.28928 22.8486 8.45578 23.611C8.00626 23.7009 7.55897 23.7904 7.42412 23.8803L7.40168 23.9028C7.71409 24.1044 8.05123 24.2615 8.41084 24.3959C8.88058 24.553 9.3975 24.6874 9.62001 24.7548C10.2269 24.8892 10.8539 24.9342 11.4833 24.8892C14.7558 24.6649 17.4461 22.1537 17.9406 18.8798C17.9631 18.9473 17.963 19.0143 17.9855 19.0817C18.008 19.2161 18.0305 19.3507 18.053 19.5076C18.0754 19.575 18.0755 19.6422 18.0755 19.7094V19.7319C18.0755 19.7993 18.0979 19.8665 18.0979 19.9337C18.0979 20.0234 18.1204 20.0906 18.1204 20.1803V21.122C18.1204 21.1895 18.0979 21.2344 18.0979 21.3016V21.3688C18.0979 21.4362 18.0755 21.5035 18.0755 21.5931C18.053 21.6603 18.053 21.7275 18.0305 21.795V21.8174C18.008 21.8846 18.008 21.9518 17.9855 22.019V22.0415C17.963 22.109 17.9631 22.1762 17.9406 22.2434V22.2658L17.8731 22.4677V22.4901C17.8507 22.5573 17.8282 22.647 17.8058 22.7142C17.7833 22.7817 17.7608 22.8489 17.7158 22.9385C17.6933 23.0057 17.6709 23.0954 17.6259 23.1626C17.6035 23.23 17.5585 23.2972 17.536 23.3869C17.5135 23.4544 17.4686 23.5216 17.4461 23.5888C17.4461 23.6112 17.4236 23.6337 17.4236 23.6337C17.4236 23.6337 17.4237 23.6562 17.4012 23.6562C16.9314 24.6202 16.2144 25.4722 15.3154 26.1449C15.248 26.1899 15.2053 26.2349 15.1378 26.2796C15.1154 26.3021 15.0929 26.302 15.0929 26.3245C15.048 26.3692 14.9805 26.3917 14.9356 26.4365L14.958 26.4814C15.0704 26.4589 15.1603 26.4589 15.2727 26.4365C15.4728 26.414 15.6525 26.369 15.8548 26.3243C15.8998 26.3243 15.9672 26.3018 16.0121 26.2793C16.0571 26.2793 16.0796 26.2569 16.1245 26.2569C16.1695 26.2569 16.2369 26.2346 16.2796 26.2346C16.3246 26.2122 16.3695 26.2121 16.4145 26.1897C17.1562 26.0105 17.8732 25.7638 18.5677 25.4722C17.3787 27.0867 15.8099 28.3874 13.9714 29.2392C14.8232 29.172 15.675 29.0376 16.5044 28.7908C19.4837 27.9163 21.9979 25.902 23.5011 23.1851C23.1864 24.8892 22.5144 26.5261 21.5053 27.9612C22.2223 27.4904 22.8741 26.9296 23.4787 26.3243C25.1374 24.5977 26.2364 22.3778 26.596 20.0234C26.841 21.1895 26.9309 22.4002 26.8185 23.5888C32.179 16.1218 27.2681 8.38587 25.2048 6.34529C25.2048 6.32281 25.1823 6.32281 25.1823 6.30034C25.1823 6.39024 25.1823 6.47969 25.1599 6.5696C25.1374 6.74895 25.1149 6.90584 25.0924 7.06272C25.0475 7.21982 25.0025 7.39918 24.9575 7.55606C24.9126 7.71317 24.8474 7.87005 24.78 8.02693C24.7125 8.18404 24.6451 8.34092 24.5552 8.47555C24.4653 8.61018 24.3754 8.76706 24.2855 8.90147C24.1956 9.0361 24.0833 9.1705 23.9709 9.30513C23.8607 9.43976 23.7483 9.55169 23.6135 9.68632C23.5461 9.75375 23.4786 9.82096 23.3887 9.86568C23.3213 9.91063 23.2763 9.95559 23.2089 10.0226C23.0741 10.1349 22.9392 10.2244 22.7841 10.3141C22.6493 10.404 22.492 10.4937 22.3346 10.5609L21.8649 10.7627C21.7075 10.8299 21.5502 10.8748 21.3929 10.9196C21.2356 10.9645 21.058 11.0095 20.9006 11.0317C20.7208 11.0542 20.5635 11.0767 20.4062 11.0992C20.2938 11.0992 20.159 11.1214 20.0488 11.1214C19.869 11.1214 19.7117 11.0989 19.5543 11.0989C19.3745 11.0765 19.2172 11.054 19.0621 11.0315C18.8917 11.0108 18.7251 10.9656 18.5677 10.8971C18.725 10.8746 18.9048 10.8746 19.0621 10.8299C19.2397 10.8074 19.397 10.7625 19.5543 10.7177C19.7117 10.6728 19.8915 10.6281 20.0263 10.5609L20.4961 10.359C20.6534 10.2916 20.7883 10.2021 20.9456 10.1125C21.0782 10.0226 21.2355 9.91063 21.3704 9.82095C21.5053 9.70858 21.6401 9.59664 21.7525 9.48449C21.8873 9.37233 21.9997 9.23793 22.1099 9.12577C22.2222 8.99114 22.3346 8.85674 22.4245 8.72211C22.447 8.69963 22.447 8.67716 22.4695 8.65468C22.5369 8.54275 22.6268 8.40812 22.6943 8.29619C22.7774 8.15122 22.8516 8.00153 22.9168 7.84757C22.9842 7.69069 23.0538 7.53359 23.0965 7.37671L23.2314 6.90584C23.2539 6.72648 23.2988 6.5696 23.2988 6.41249C23.3213 6.23313 23.3213 6.07625 23.3213 5.91914C23.3213 5.80721 23.3213 5.67259 23.2988 5.56043C23.2764 5.38108 23.2539 5.22419 23.2314 5.06709C23.2089 4.88773 23.164 4.73085 23.119 4.57374C23.0741 4.41686 23.0067 4.25998 22.964 4.10287C22.8965 3.94599 22.8291 3.78911 22.7616 3.65448C22.6717 3.4976 22.6043 3.36297 22.5144 3.20609C22.4245 3.07145 22.3121 2.93683 22.2222 2.80242C22.1099 2.66779 21.9997 2.55563 21.8874 2.42123C21.8199 2.3538 21.7525 2.2866 21.685 2.24187C21.3479 1.97283 21.013 1.74853 20.6534 1.52422C20.6085 1.50174 20.5635 1.47927 20.4961 1.45679C20.2039 1.21046 19.9814 1.14303 19.7566 1.05335Z" fill="white"/>
</svg>
