<svg width="46" height="45" viewBox="0 0 46 45" fill="none" xmlns="http://www.w3.org/2000/svg">
<path d="M6.937 21.2185C6.87856 21.3257 6.81789 21.4163 6.75721 21.5233L6.6673 21.4768C6.60437 21.8251 6.39308 22.1299 6.17956 22.1899C6.24025 22.22 6.30093 22.2504 6.34813 22.2353C6.39308 22.22 6.4223 22.1432 6.45376 22.0982L6.86284 21.5069L6.99994 21.2776L6.93925 21.2169L6.937 21.2185ZM1.88893 27.8858C1.96535 27.8858 2.03951 27.9008 2.13166 27.9008C2.13166 27.8406 2.2081 27.8541 2.2081 27.7952H2.25304C2.25304 27.8707 2.26876 27.9312 2.26876 28.0076H1.94962C1.93389 27.9925 1.87544 27.9008 1.88893 27.8858ZM1.76755 27.1872C1.7226 27.1409 1.6462 27.0971 1.6462 27.0503C1.63272 26.9912 1.67766 26.9157 1.72261 26.8388C1.75183 26.946 1.76755 27.0366 1.79677 27.1438C1.78329 27.1573 1.76755 27.1726 1.76755 27.1872ZM2.14741 26.2149C2.20809 26.3684 2.26876 26.5359 2.32945 26.6882C2.31371 26.6882 2.22383 26.7337 2.2081 26.7483C2.14741 26.5963 2.07099 26.4287 2.01031 26.2776C2.02604 26.263 2.11819 26.2163 2.14741 26.2163V26.2149ZM35.9061 40.7343C35.9826 40.7055 36.0725 40.6887 36.1938 40.6601C36.0567 40.7655 35.9511 40.8411 35.8612 40.9316C35.8455 40.9179 35.8297 40.9013 35.814 40.9013C35.8454 40.8411 35.8747 40.7961 35.9061 40.7343ZM17.2669 8.64575C17.3546 8.58395 17.4332 8.53854 17.5231 8.47831L17.5523 8.50843C17.4624 8.62912 17.386 8.75004 17.2804 8.9022C17.2647 8.79769 17.2647 8.73588 17.2489 8.66081C17.2332 8.66081 17.2489 8.66081 17.2647 8.64575H17.2669ZM21.7104 16.3298C21.8452 16.2678 21.9823 16.2089 22.1487 16.132C22.1329 16.2226 22.1329 16.2844 22.1329 16.3444C22.0844 16.3273 22.0337 16.3172 21.9824 16.3145C21.8902 16.3296 21.7239 16.45 21.6475 16.4656C21.634 16.4656 21.7081 16.3449 21.7081 16.3296H21.7104V16.3298ZM33.0854 29.2067C33.1146 29.3591 33.4023 29.4346 33.1146 29.587C33.1618 29.6184 33.2068 29.6319 33.2517 29.6634C33.2473 29.6865 33.2363 29.7079 33.2203 29.7252C33.1911 29.7393 33.1304 29.7692 33.0989 29.7542C33.0854 29.7542 33.054 29.6937 33.054 29.6634C33.054 29.5265 33.0697 29.3905 33.0854 29.208V29.2067ZM33.0854 26.1695C33.0989 26.1695 33.1146 26.1846 33.1146 26.1846L33.0989 26.1682C33.0989 26.1531 33.0989 26.1531 33.0854 26.1682V26.1695ZM35.4813 41.1746C35.315 41.2951 35.1465 41.4023 34.9352 41.4475C34.9195 41.4324 34.9194 41.4174 34.9037 41.4007C35.0723 41.2955 35.2521 41.1897 35.4206 41.0827C35.4341 41.1115 35.4656 41.1429 35.4791 41.1733L35.4813 41.1746ZM7.04488 20.5957C7.21345 20.3844 7.37978 20.172 7.56183 19.9592C7.57532 19.9743 7.69445 20.0048 7.71243 20.0197C7.54386 20.2325 7.31685 20.5204 7.14829 20.7483C7.11907 20.7182 7.0741 20.6121 7.04488 20.5957ZM2.73852 28.0379C2.61715 27.7801 2.49354 27.5073 2.37442 27.249C2.39015 27.234 2.49353 27.1877 2.50927 27.1877C2.67783 27.43 2.75201 27.7183 2.87562 27.9777C2.87562 27.9777 2.75426 28.0379 2.73852 28.0379ZM6.60436 20.7483C6.51446 20.8854 6.42456 21.0376 6.33241 21.1747C6.31668 21.1585 6.15036 21.2352 6.13462 21.2203C6.22677 21.083 6.45377 20.84 6.54367 20.7029C6.5594 20.7182 6.57514 20.7344 6.60436 20.7495V20.7483ZM33.8586 41.7972C33.8743 41.7972 33.8743 41.7835 33.8878 41.7835C33.9934 41.7976 34.1148 41.8125 34.2362 41.8125C34.0406 41.9494 33.917 41.9345 33.8563 41.7972H33.8586ZM6.63358 21.386C6.64931 21.3408 6.68077 21.2954 6.70999 21.2502C6.74146 21.2502 6.78643 21.2336 6.78643 21.2336C6.84711 21.1282 6.84709 21.0527 6.90778 20.9607C6.89205 20.9457 6.87857 20.9457 6.86059 20.9306C6.77068 20.9924 6.68079 21.0693 6.58864 21.1293C6.62011 21.1596 6.62011 21.1749 6.62011 21.2048C6.49874 21.1898 6.45154 21.2516 6.3931 21.4177C6.37737 21.4644 6.30095 21.4781 6.22453 21.5384C6.2088 21.57 6.19531 21.6453 6.16384 21.7211L6.17956 21.7373C6.15709 21.7575 6.13237 21.7732 6.10315 21.784C6.01325 21.8746 5.90536 21.951 5.81546 22.0402C5.79972 22.087 5.78624 22.1324 5.78624 22.1773C5.89187 22.0717 6.07393 21.8746 6.21103 21.7523L6.22678 21.7674C6.28522 21.6768 6.33242 21.5862 6.3931 21.4945C6.40659 21.5096 6.40656 21.5249 6.42454 21.5408C6.37734 21.6617 6.33239 21.7973 6.28744 21.9195C6.25598 21.9346 6.20878 21.9652 6.20878 21.9497C6.15035 21.9964 6.10315 22.0553 6.04246 22.1021L5.76827 22.2832C5.61768 22.4203 5.46482 22.541 5.30075 22.6783C5.19287 22.8456 5.08723 22.9966 4.96586 23.1953C5.14792 23.149 5.19288 23.2256 5.17715 23.378C5.39067 23.4081 5.40641 23.2409 5.46485 23.1189C5.48058 23.0885 5.49854 23.0267 5.52551 23.0116C5.66261 22.891 5.81547 22.7851 5.96605 22.6633C5.99752 22.6332 5.99752 22.5713 5.99752 22.5264C5.99752 22.5109 5.92109 22.5109 5.8739 22.4958C6.011 22.3437 6.20878 22.087 6.34588 21.9198C6.42005 21.8732 6.49648 21.8128 6.49648 21.7674C6.483 21.5999 6.58862 21.5545 6.70999 21.4932C6.64931 21.4476 6.63358 21.4026 6.63358 21.3889V21.386ZM44.9751 19.5342C44.9437 18.9415 44.9279 18.349 44.8695 17.7563C44.7616 16.9524 44.656 16.132 44.4739 15.3418C44.3368 14.6886 44.1121 14.066 43.8828 13.4432C43.5951 12.715 43.3074 11.9711 42.9433 11.2716C42.3522 10.148 41.5768 9.14539 40.8643 8.09869C40.3946 7.42914 39.7877 6.88342 39.3315 6.20016C39.0752 5.80503 38.6954 5.47194 38.3155 5.16851C37.7087 4.68169 37.0726 4.23981 36.4343 3.81592C35.9511 3.48103 35.4656 3.16277 34.9487 2.87328C34.5396 2.64582 34.0991 2.4631 33.6743 2.26576C33.1888 2.03785 32.7191 1.76365 32.1729 1.65824C32.038 1.62902 31.9167 1.58227 31.7796 1.53687C31.4312 1.41527 31.0963 1.27929 30.7479 1.17208C30.2175 1.00509 29.7028 0.808648 29.1544 0.67177C28.6262 0.534443 28.08 0.443865 27.5339 0.366998C26.927 0.277768 26.3044 0.246527 25.6976 0.187415C25.3043 0.140666 24.9109 0.0952644 24.5311 0.0804304C23.9535 0.0514365 23.3624 0.0514365 22.787 0.0363777C22.4993 0.0199703 22.1959 -0.0103721 21.9082 0.0049115C21.4654 0.0228922 21.0249 0.0637982 20.5866 0.126955C20.164 0.172357 19.7393 0.247875 19.3302 0.309684C18.8312 0.369695 18.33 0.399812 17.8288 0.461621C17.3591 0.522306 16.8736 0.614232 16.4038 0.689301C16.2353 0.719419 16.0689 0.779879 15.9026 0.809997C15.5385 0.887089 15.1587 0.917207 14.7968 1.03925C14.1405 1.23974 13.4932 1.4627 12.8549 1.70746C12.2638 1.9502 11.6861 2.20822 11.1265 2.51277C10.5511 2.8308 10.0027 3.20952 9.45878 3.57588C8.93388 3.92611 8.42185 4.29526 7.92369 4.68259C7.44046 5.064 6.9842 5.4879 6.54367 5.91314C6.30318 6.1561 6.1054 6.44559 5.87839 6.71845C5.49855 7.15898 5.11871 7.584 4.7546 8.03958C4.45343 8.41942 4.17923 8.81477 3.89154 9.20967C3.37684 9.90642 2.9363 10.6517 2.52724 11.3966C2.36092 11.6998 2.21033 12.0041 2.0575 12.3073C1.83049 12.7613 1.5855 13.2032 1.37422 13.6738C1.22144 14.0009 1.09954 14.3416 1.01012 14.6913C0.796596 15.4389 0.589816 16.188 0.389781 16.9387C0.205479 17.608 0.160537 18.3061 0.147051 18.9896C0.131318 19.5971 0.191997 20.1898 0.252681 20.796C0.268414 20.9484 0.178504 21.1309 0.358311 21.2516C0.297626 21.419 0.342598 21.5107 0.434749 21.5395C0.329112 21.7069 0.479687 21.8141 0.42125 21.9663C0.40327 21.9964 0.46622 22.0569 0.495438 22.1021C0.495438 22.1488 0.481953 22.2093 0.495438 22.2544C0.511171 22.3915 0.571848 22.5273 0.571848 22.6795C0.571848 22.7867 0.661733 22.9074 0.693199 23.0146C0.706685 23.0597 0.693223 23.135 0.661757 23.1665C0.571854 23.2724 0.587564 23.3629 0.722419 23.4248C0.798837 23.6207 0.769622 23.7127 0.753888 23.8046C0.783107 23.9401 0.738155 23.9855 0.753888 24.0172C0.875258 24.2602 0.920223 24.533 0.935956 24.8059C0.935956 24.8677 0.965179 24.9282 0.996645 25.0037C1.01238 25.0037 0.996645 25.2916 0.996645 25.2916C1.07082 25.2478 1.13149 25.2325 1.20791 25.201C1.2551 25.3986 1.30007 25.5824 1.36075 25.7485C1.43492 25.8704 1.43491 25.9292 1.40569 25.9445C1.46638 26.2176 1.4956 26.4768 1.60123 26.7345C1.60123 26.4466 1.57202 26.1587 1.52707 25.8843C1.73835 25.9609 1.92038 26.0364 2.044 26.0364C2.05749 25.9897 2.07324 25.9292 2.08897 25.8996C1.99907 25.8088 1.92039 25.673 1.83049 25.5809C1.86196 25.7018 1.83049 25.7485 1.83049 25.7953C1.76981 25.7636 1.6934 25.7335 1.61698 25.7018C1.67767 25.6281 1.74059 25.5507 1.83049 25.4604C1.83049 25.3233 1.75631 25.201 1.54279 25.2161C1.6327 25.186 1.72485 25.1424 1.83049 25.1107C1.99906 25.0201 1.81477 24.8526 1.81477 24.64C1.8305 24.382 1.67765 24.124 1.6327 23.8513C1.55853 23.4261 1.57202 22.788 1.52707 22.3628C1.43717 22.2857 1.36074 22.4835 1.345 22.4985C1.39445 22.862 1.43492 23.2265 1.46638 23.5917C1.37423 23.2888 1.31579 22.9541 1.23937 22.5891C1.22364 22.6959 1.21016 22.7413 1.21016 22.8035C1.13374 22.8772 1.19442 22.9705 1.23937 23.0759C1.13374 23.0296 1.01237 23.046 1.01237 23.046V23.4711C0.861778 23.3189 0.814585 23.1982 0.738167 23.091C0.708949 22.9705 0.693226 22.8485 0.664007 22.7276C0.693226 22.6509 0.664007 22.6057 0.664007 22.5603C0.648274 22.4533 0.632524 22.3324 0.619039 22.1951C0.632524 22.1805 0.603318 21.9539 0.603318 21.9539C0.72244 21.9679 0.801097 21.9827 0.875267 21.9827C0.724679 21.7867 0.830305 21.6644 0.893238 21.5422C0.922456 21.4819 1.02809 21.4669 1.05956 21.4053C1.18093 21.1774 1.37872 20.9965 1.37872 20.7067C1.37872 20.5699 1.42368 20.4191 1.43941 20.282C1.46863 20.0237 1.49784 19.7646 1.51132 19.5065C1.54279 19.1732 1.51135 18.8386 1.59001 18.5203C1.71552 17.9832 1.86247 17.4514 2.03053 16.9261C2.15237 16.5461 2.28881 16.171 2.43958 15.8016C2.66658 15.2101 2.8801 14.6176 3.16779 14.0561C3.57685 13.2346 4.04661 12.446 4.50287 11.6407C4.79056 11.1399 5.09397 10.6693 5.41313 10.1824C5.71655 9.71201 6.01773 9.22631 6.36835 8.78578C6.85383 8.1632 7.38427 7.58557 7.97538 7.06975C8.58223 6.52246 9.15987 5.96124 9.80942 5.45913C10.6575 4.80484 11.5607 4.22519 12.5088 3.72669C13.2819 3.31785 14.0866 2.99847 14.8912 2.69347C15.4059 2.49748 15.9678 2.40556 16.4982 2.23834C17.1051 2.04055 17.7119 1.95042 18.348 1.93491C18.7571 1.91985 19.1526 1.8731 19.5617 1.82815C19.937 1.80028 20.3101 1.76522 20.6832 1.72252C20.6383 1.78298 20.6226 1.81422 20.6091 1.84434C20.4428 2.0873 20.2607 2.33004 20.0921 2.573C19.9573 2.77034 19.8044 2.98319 19.6696 3.18053C19.4246 3.50013 19.1661 3.81884 18.9391 4.15351C18.5907 4.65382 18.2716 5.17121 17.9075 5.67197C17.5456 6.15745 17.15 6.61304 16.7702 7.08368C16.2712 7.73773 15.7992 8.40436 15.3003 9.05729C14.844 9.68032 14.3608 10.2741 13.9203 10.8972C13.5247 11.4415 13.1763 12.0207 12.7965 12.5806C12.2368 13.4174 11.6772 14.2362 11.1153 15.0714C10.6748 15.7074 10.2297 16.3406 9.7802 16.9701C9.75098 17.0169 9.70377 17.0308 9.65882 17.0609C9.53745 17.2583 9.53745 17.3639 9.4925 17.4558C9.37113 17.6835 9.24978 17.911 9.11267 18.1238C9.03625 18.2447 8.93062 18.3515 8.83847 18.4722C8.82499 18.2897 9.08119 18.1993 8.95983 17.9714C8.88565 18.0937 8.80923 18.1993 8.73282 18.3212L8.55078 18.6837C8.61146 18.73 8.71935 18.7601 8.61147 18.8509C8.56651 18.9278 8.52154 19.0184 8.47659 19.0952C8.55076 19.0485 8.59574 19.0047 8.64294 18.9428C8.64294 19.1103 8.55076 19.246 8.47659 19.3834C8.4159 19.5041 8.26309 19.5958 8.15745 19.6863C8.17318 19.7014 8.27881 19.7468 8.2923 19.7619C8.4294 19.7165 8.4766 19.6409 8.49009 19.6863C8.53729 19.6259 8.58223 19.5809 8.59797 19.5342C8.6564 19.3831 8.74855 19.2611 8.89914 19.2006C8.96207 19.1703 9.00703 19.1242 9.05198 19.0802C9.50824 18.6082 9.97573 18.1526 10.387 17.6518C11.0231 16.8769 11.6008 16.0716 12.2076 15.2829C12.4661 14.948 12.7672 14.6149 13.0414 14.2953C13.0864 14.6437 13.0572 14.9783 13.0414 15.2977C12.9942 15.8592 12.965 16.4215 12.9201 16.9976C12.9043 17.2252 12.9201 17.4531 12.9043 17.6808C12.9043 17.7424 12.8594 17.7878 12.8594 17.8483C12.8594 18.0002 12.9043 18.1679 12.9043 18.3187C12.8594 18.881 12.7965 19.4272 12.7515 19.9893C12.7358 20.1102 12.7965 20.2325 12.8257 20.339C12.7515 21.1585 12.9201 22.0252 12.7807 22.891C12.8886 22.7237 12.9178 22.6181 12.9178 22.5109C12.9336 22.4203 12.9178 22.3297 12.9178 22.223V22.0706C12.9336 21.7977 12.9943 21.5096 12.9628 21.2349C12.9336 20.932 12.9336 20.6438 12.9943 20.3543C13.0257 20.2339 12.9785 20.0815 13.0549 19.9295V20.157C13.0392 21.0207 13.0707 21.8883 12.9493 22.7538C12.9336 22.8291 12.9965 22.9665 12.8279 22.9512C12.6908 23.224 12.8594 23.4218 12.7088 23.574C12.6751 23.6041 12.7358 23.7401 12.7515 23.832C12.6908 24.0147 12.6908 24.0147 12.7807 24.0294C12.7965 24.3631 12.8279 24.6661 12.8414 24.9857C13.0841 24.4096 12.9628 23.8156 13.0707 23.224C13.0842 23.4672 13.0999 23.7097 13.0841 23.9666C13.0841 24.3631 13.0707 24.7427 13.0549 25.1367C13.0549 25.2132 13.0392 25.2887 13.0257 25.3658C12.9785 25.5782 12.965 25.7906 12.8886 25.9872C12.8279 26.1394 12.8594 26.3684 12.8594 26.5496V27.1272C12.9201 27.3863 12.8414 27.5223 12.8886 27.6743C12.8414 27.8269 12.8279 27.8721 12.8414 27.9175L12.8886 28.1449C13.192 28.1148 13.0549 28.3427 13.1763 28.4645C13.0841 28.5868 13.1156 28.6306 13.1156 28.6924C13.1156 28.8295 13.1021 28.9516 13.0864 29.0875C13.0864 29.4373 13.0707 29.7856 13.0707 30.1203C13.0707 30.1671 13.0864 30.2109 13.0864 30.2563C13.0864 30.288 13.0707 30.6829 13.0707 30.6829C13.1021 30.7283 13.0707 30.7732 13.0257 30.8186C13.01 30.8186 12.965 28.8898 12.965 28.8898H12.7358C12.7088 29.8007 12.783 30.6211 12.6167 31.4718C12.4323 31.4868 12.3739 31.517 12.1761 31.517C11.7041 31.517 11.2366 31.517 10.7646 31.5322C10.205 31.5322 9.65882 31.5473 9.09692 31.5473C8.82497 31.5473 8.53728 31.5772 8.26308 31.5772C7.89897 31.5772 7.51912 31.5322 7.15726 31.5322C6.59536 31.5322 6.04921 31.5774 5.48732 31.5923C5.07826 31.6073 4.6692 31.6073 4.26014 31.6237C3.98819 31.6379 3.71173 31.6525 3.44202 31.6828C3.3184 31.6979 3.21275 31.7433 3.06216 31.7898C3.01496 31.7898 2.90934 31.7748 2.81943 31.7898C2.6666 31.8202 2.53172 31.9107 2.37889 31.9409C2.15188 31.9874 2.08897 32.0476 2.12044 32.2755V32.4277C2.1047 32.4565 2.45533 32.3814 2.45533 32.3814C2.42386 32.3814 2.40812 32.4715 2.36317 32.5484C2.48454 32.5019 2.56095 32.4715 2.63512 32.4414C2.86437 32.5484 3.05993 32.4881 3.24198 32.5347C3.8331 32.6857 4.43995 32.7475 5.0468 32.8062C5.44237 32.8379 5.81996 32.8529 6.21553 32.868C6.77518 32.8983 7.33707 32.9284 7.89672 32.9284C8.36871 32.9284 8.82272 32.8817 9.29246 32.8817C9.94426 32.8817 10.5961 32.912 11.2479 32.9284C11.385 32.9284 11.5356 32.912 11.6884 32.912H12.7942C13.7809 32.8817 14.7676 32.8666 15.7543 32.8381C16.3139 32.8212 16.8916 32.7916 17.4512 32.7763L19.1818 32.7298C19.8471 32.7145 20.5147 32.7145 21.1687 32.701C21.6677 32.701 22.1532 32.6844 22.6544 32.6693C23.214 32.6542 23.7916 32.6088 24.3535 32.5787C24.657 32.5637 24.9604 32.532 25.2638 32.5032C25.6279 32.4729 26.0055 32.4277 26.3696 32.4126C26.9158 32.3809 27.4777 32.3661 28.0239 32.336C28.7049 32.2904 29.3881 32.2303 30.0871 32.2153C30.7232 32.1849 31.375 32.2 32.0111 32.1849C32.573 32.1685 33.1349 32.1382 33.7125 32.1231L34.6677 32.078C34.6677 32.078 35.3038 32.0627 35.6229 32.0312C36.1691 32.0013 36.7153 31.9409 37.2614 31.9258C37.6098 31.9107 37.9582 31.9258 38.3066 31.9107C38.8662 31.8957 39.4438 31.864 40.0057 31.864C40.217 31.864 40.444 31.8957 40.7182 31.9107C40.5969 32.0162 40.5204 32.078 40.4305 32.1535C40.489 32.1685 40.5497 32.2 40.6103 32.229C40.5407 32.2796 40.4552 32.3061 40.3698 32.3043C40.3384 32.3814 40.3069 32.4115 40.2777 32.5637H40.5497C40.444 32.5637 40.3519 32.7005 40.2462 32.7916C40.1271 32.7599 40.0192 32.7916 39.9585 32.9586C40.0642 33.019 40.0507 33.064 40.0349 33.1262C39.8529 33.1851 39.7158 33.2467 39.7922 33.4443C39.7315 33.473 39.6551 33.5047 39.5787 33.5497C39.5045 33.6706 39.3674 33.7007 39.3989 33.8682C39.4573 33.8832 39.518 33.9149 39.5652 33.9286C39.4888 33.9587 39.4124 34.0041 39.3382 34.034C39.064 34.2015 39.1876 34.2783 39.246 34.3536C39.2011 34.3842 39.1561 34.4143 39.1112 34.4294C39.1404 34.5665 39.1854 34.5966 39.2011 34.5966C39.1404 34.6422 39.064 34.7036 38.9718 34.7791C38.9269 34.9162 38.8662 34.9767 38.8055 35.0672C38.7448 35.1578 38.7156 35.2796 38.637 35.3702C38.32 35.7199 38.093 36.1317 37.684 36.4048C37.5311 36.5102 37.3963 36.6475 37.2592 36.7849C36.9872 37.0427 36.7422 37.3306 36.4546 37.5749C36.077 37.8931 35.6836 38.1811 35.2723 38.4692C34.7766 38.8192 34.2768 39.1636 33.7732 39.5022C33.499 39.6849 33.1956 39.8204 32.9079 39.9879C32.6179 40.1551 32.346 40.3075 32.0583 40.4736C31.8762 40.5941 31.7099 40.7617 31.5121 40.8537C31.0109 41.0676 30.4805 41.2488 29.9635 41.4461C29.4623 41.6603 29.1004 41.8412 28.7206 41.9786C28.3677 42.0972 28.0081 42.1934 27.644 42.2665C27.5226 42.2966 27.3855 42.2665 27.2484 42.2815C26.9922 42.3283 26.7337 42.3888 26.4753 42.4184C25.8077 42.5092 25.1402 42.571 24.4749 42.6616C24.0793 42.7084 23.6995 42.7823 23.3062 42.8291C23.0342 42.8441 22.7443 42.814 22.4723 42.814C22.2745 42.814 22.0633 42.8603 21.8655 42.8291C21.5463 42.7834 21.2272 42.7084 20.9102 42.6479C20.8338 42.6328 20.7282 42.6012 20.6675 42.6328C20.5461 42.6931 20.4405 42.6025 20.3169 42.6328C20.2427 42.6479 20.1663 42.5861 20.0921 42.5861C20.0292 42.5724 19.955 42.6025 19.8764 42.5861C19.71 42.5407 19.5594 42.4807 19.3774 42.4955C19.1953 42.5106 19.0133 42.42 18.8155 42.375C18.5435 42.3132 18.2873 42.2541 18.0131 42.1923C17.9075 42.1622 17.8153 42.1155 17.7097 42.0554C17.3164 42.0554 17.0556 42.0399 16.8152 41.9498C16.6016 41.8743 16.4061 41.7671 16.1768 41.7972C16.1184 41.8125 16.0712 41.7835 16.0105 41.7835C15.9655 41.7217 15.9206 41.5999 15.8757 41.5999C15.5722 41.616 15.3902 41.3582 15.1317 41.2814C14.9969 41.2351 14.889 41.084 14.7541 41.0386C14.4192 40.9018 14.1473 40.6134 13.7674 40.5682C13.646 40.5529 13.5247 40.4911 13.3876 40.4473C13.4348 40.5064 13.464 40.5529 13.5089 40.5983C13.0707 40.3841 12.6594 40.1427 12.2503 39.9153C12.1919 39.9002 12.1446 39.8398 12.0997 39.8081L11.6906 39.5352C11.4636 39.5817 11.3715 39.4896 11.3108 39.4597C10.9018 39.1718 10.432 38.9877 10.0364 38.6697C9.87011 38.5326 9.67456 38.4418 9.55319 38.2746C9.33742 38.0165 9.0812 37.8342 8.79351 37.6816C8.5665 37.5614 8.35297 37.4241 8.1417 37.2883C8.03606 37.2112 7.92819 37.1209 7.92819 36.9534C7.92819 36.8462 7.88547 36.741 7.74612 36.8013C7.68769 36.7107 7.627 36.6037 7.55058 36.5734C7.36853 36.4996 7.24717 36.361 7.11007 36.2398C6.97296 36.118 6.86734 35.9508 6.70102 35.8903C6.39759 35.7696 6.21552 35.5118 6.03346 35.299C5.60867 34.7969 5.22884 34.2496 4.83551 33.72C4.80405 33.6733 4.74561 33.6432 4.69841 33.5978C4.7591 33.7652 4.8355 33.9012 4.90967 34.0534C4.75908 33.9929 4.65347 33.8861 4.56356 33.7805C4.54783 33.7956 5.6087 35.5419 5.6087 35.5419C5.70085 35.6775 5.77499 35.8148 5.86715 35.9521C5.77499 35.9604 5.68286 35.9418 5.60195 35.8986C5.52135 35.8552 5.45501 35.7894 5.41091 35.7092C5.27605 35.4664 5.12321 35.314 4.81979 35.3457C4.78832 35.2358 4.76358 35.1239 4.7456 35.0111C4.68492 35.0111 4.63998 35.0111 4.53209 34.9958C4.73438 35.3111 4.93217 35.6298 5.12546 35.9521C5.04679 35.9065 5.00408 35.8766 4.97036 35.8615C5.24457 36.1495 5.44236 36.5147 5.79074 36.697C5.86491 37.0453 6.26048 37.2126 6.35038 37.5472C6.27621 37.5311 6.21329 37.5155 6.13912 37.5009C6.01775 37.3499 5.88065 37.1975 5.74579 37.0303C5.77501 37.1375 5.81771 37.2276 5.88064 37.3031C6.0627 37.5311 6.22902 37.7587 6.44254 37.9563C6.51896 38.0343 6.62458 38.0646 6.62458 38.202C6.7437 38.2622 6.79092 38.2757 6.83587 38.2757C6.86733 38.3676 6.82238 38.5049 7.00219 38.4748C7.12356 38.7027 7.24492 38.7027 7.41349 38.6272C7.61127 38.8245 7.71693 38.8396 7.85403 38.7189C7.85403 38.7928 7.8675 38.8697 7.8675 38.9302C7.92819 38.9001 7.91247 38.8547 7.91247 38.7791C7.98889 38.8396 8.03382 38.8697 8.06529 38.9001C8.21588 39.1129 8.35297 39.3102 8.56425 39.4777C8.85419 39.7204 9.11041 39.9782 9.38237 40.2061C9.91505 40.6464 10.5084 41.0114 11.0973 41.3461C11.8255 41.7563 12.5245 42.1966 13.2662 42.5904C14.1607 43.0624 15.116 43.3804 16.1027 43.6081C16.4668 43.6852 16.8152 43.7605 17.1793 43.851C17.4962 43.9427 17.8153 44.0801 18.1345 44.1556C18.62 44.2608 19.1189 44.3529 19.6044 44.4435C19.71 44.4586 19.8202 44.4736 19.9393 44.4891C20.0764 44.5204 20.2427 44.4586 20.2719 44.5053C20.3484 44.626 20.409 44.5642 20.4989 44.5491C20.6046 44.519 20.7282 44.519 20.8473 44.519C21.2744 44.5341 21.6812 44.6244 22.1082 44.5959C22.2004 44.5959 22.3352 44.519 22.4116 44.6696C22.5487 44.6096 22.6229 44.6096 22.6836 44.5959C22.6993 44.7319 22.6836 44.7319 22.6544 44.7469C22.6252 44.7615 22.578 44.7768 22.5173 44.822C23.0634 44.9279 23.5804 44.9429 24.0344 44.822C24.8233 44.8825 25.5066 44.7919 26.1584 44.5642C26.219 44.6397 26.264 44.7469 26.3539 44.5945C26.3854 44.5491 26.4618 44.5327 26.5225 44.5177C26.6573 44.4873 26.8259 44.4269 26.945 44.4723C27.0821 44.5179 27.1293 44.3968 27.2327 44.3968C27.408 44.3976 27.5811 44.3821 27.7519 44.3505C27.8418 44.3363 27.9339 44.29 28.0396 44.2599C27.9362 44.2082 27.8216 44.1819 27.7047 44.1828C27.8867 44.0922 28.0553 44.0153 28.2217 43.9416C28.1902 43.9866 28.161 44.047 28.1003 44.047H28.3115C28.2666 44.047 28.2059 44.1828 28.1295 44.2749C28.6734 44.1378 29.1746 44.0153 29.6601 43.8935C29.4938 43.5753 29.8422 43.682 29.9635 43.4997C29.8129 43.5465 29.6601 43.5905 29.5095 43.6202C30.0242 43.3624 30.5546 43.135 31.0716 42.9084C30.9952 42.999 30.903 43.0444 30.7682 43.1212C30.8581 43.135 30.921 43.135 30.9659 43.15C31.2064 43.2267 31.148 42.999 31.2222 42.8621C31.5121 42.8621 31.6312 42.8165 31.7683 42.7715C31.9189 42.7248 32.0717 42.6794 32.2223 42.6191C32.4651 42.5137 32.6943 42.3775 32.9371 42.2555C32.982 42.2404 33.0584 42.2555 33.1169 42.2555C33.2854 42.1485 33.3461 42.0579 33.3911 42.073C33.6024 42.1031 33.7552 42.0262 33.8136 41.8302C33.9193 41.7547 33.9979 41.6934 34.0721 41.6477C34.407 41.465 34.7239 41.2827 35.0565 41.102C35.1802 41.102 35.2409 41.102 35.2701 41.0854C35.4634 40.9932 35.6499 40.8921 35.832 40.782C35.78 40.7606 35.7297 40.7355 35.6814 40.7069C35.832 40.6752 35.8769 40.6613 35.9691 40.6296C36.3309 40.2032 36.8321 39.9153 37.212 39.5817C37.3783 39.5665 37.3783 39.5215 37.3783 39.4914C37.439 39.4141 37.4997 39.3239 37.5738 39.2621C37.9087 38.9589 38.2706 38.7011 38.5763 38.3818C39.015 37.9438 39.4349 37.4874 39.8349 37.0139C40.1968 36.5884 40.5631 36.1645 40.8666 35.6925C41.2914 35.0394 41.6555 34.3718 42.0331 33.6875C42.3073 33.2027 42.55 32.716 42.8242 32.2299C42.8512 32.1849 42.9141 32.1245 42.9591 32.1245C43.3681 32.078 43.7772 32.0492 44.1728 32.0024C44.2649 31.9874 44.3706 31.9287 44.4605 31.882C44.4155 31.8064 44.384 31.7143 44.3413 31.639C44.2784 31.5473 44.1885 31.4718 44.1256 31.3796C44.0671 31.3041 44.0222 31.2122 43.975 31.1221C43.93 31.0465 43.8851 30.9861 43.8379 30.9092C43.7457 30.742 43.6558 30.5745 43.5794 30.3932C43.5637 30.3469 43.5344 30.2727 43.5502 30.2262C43.8244 29.6346 43.93 28.997 44.1862 28.4041C44.4447 27.7965 44.5211 27.1135 44.6425 26.4603C44.7481 25.8378 44.8088 25.2147 44.883 24.5935C44.9302 24.153 44.9909 23.7277 45.0044 23.2874C45.0988 22.5891 45.0673 21.9346 45.0516 21.2821C45.0358 20.7054 45.0044 20.1129 44.9751 19.5353V19.5342ZM6.92353 38.2278C6.81789 38.1071 6.72575 37.97 6.62011 37.848L6.6673 37.8026C6.83137 37.9851 6.99994 38.1678 7.16626 38.3651C7.07411 38.3184 6.97073 38.2878 6.92353 38.2278ZM7.16626 38.3651C7.21346 38.3503 7.2584 38.3501 7.30336 38.335C7.35056 38.4105 7.37978 38.5007 7.42473 38.5928C7.21346 38.5762 7.10557 38.4856 7.16851 38.3651H7.16626ZM22.9398 44.637V44.5903C23.2275 44.5602 23.4995 44.5298 23.7871 44.4997V44.5453C23.4995 44.5903 23.2275 44.619 22.9398 44.6357V44.637ZM26.7607 44.2419C26.5494 44.2886 26.3224 44.3188 26.1089 44.3491C26.0347 44.3642 25.9426 44.4406 25.9111 44.3032C25.8819 44.3188 25.8504 44.3188 25.8212 44.3338C25.8976 44.5615 26.0797 44.3792 26.2303 44.4693C25.8976 44.5161 25.5807 44.5467 25.2616 44.5916V44.5615C25.3515 44.5464 25.4571 44.5312 25.5493 44.5148V44.4693C25.3964 44.4543 25.2458 44.4397 25.093 44.4397C25.048 44.4397 24.9874 44.501 24.9424 44.5161C24.8772 44.5348 24.812 44.5451 24.7446 44.5464C24.4861 44.5615 24.2299 44.5615 23.9849 44.5766C23.9714 44.5766 23.94 44.5615 23.9265 44.5615V44.5148C24.9402 44.3792 25.9426 44.2432 26.9585 44.1059C26.9742 44.1363 26.9742 44.1664 26.9877 44.1965C26.8978 44.1965 26.8371 44.2282 26.7607 44.2432V44.2419ZM26.9877 44.0909C27.3384 44.0446 27.6575 44.0153 27.9901 43.9704C27.2934 44.1664 27.0664 44.1965 26.99 44.0909H26.9877ZM13.7787 13.4282C14.2641 12.76 14.7653 12.092 15.2508 11.4089C15.4014 11.2098 15.5228 10.9974 15.6734 10.7996C15.7206 10.7396 15.7813 10.7093 15.8577 10.6475L15.8419 10.6187C15.9026 10.5432 15.9611 10.4816 15.9948 10.4209C16.0712 10.3004 16.1161 10.1631 16.1768 10.026C16.1903 9.99723 16.2375 9.96688 16.2375 9.96688C16.451 10.0725 16.451 9.84641 16.5252 9.76955C16.6601 9.61649 16.7927 9.45938 16.9208 9.2989C17.0107 9.17663 17.1006 9.07145 17.177 8.93367C17.1927 8.88737 17.1478 8.8132 17.1298 8.75162H17.0849C17.1321 8.72127 17.177 8.67632 17.222 8.64598C17.2377 8.64598 17.2377 8.64598 17.2534 8.63092C17.3433 8.49382 17.4355 8.35649 17.5254 8.23579C17.7074 7.99306 17.9052 7.75032 18.1165 7.53747C18.0895 7.60939 18.0581 7.68042 18.0244 7.75032C18.0423 7.75032 18.0423 7.76538 18.0558 7.76538C18.2379 7.52241 18.4356 7.29473 18.6177 7.05064C18.602 7.03671 18.5862 7.02053 18.5705 7.02053C18.4963 7.09694 18.4357 7.17246 18.3592 7.24955C18.3458 7.23292 18.33 7.21786 18.3143 7.21786C18.4649 7.02052 18.6177 6.82454 18.7683 6.59618C18.7998 6.64181 18.829 6.70182 18.8897 6.82454C18.9504 6.67215 19.011 6.56629 19.0582 6.4593C19.011 6.50605 18.9503 6.55145 18.9054 6.59641L18.8605 6.55145L19.1324 6.14105C19.4201 5.73086 19.7078 5.30517 19.9955 4.89543C20.1033 4.7444 20.2405 4.62258 20.3304 4.47019C20.6203 3.89413 21.0743 3.4372 21.4227 2.90632C21.4991 2.80091 21.6048 2.70853 21.6969 2.6184C21.7711 2.52625 21.8318 2.5566 21.8947 2.63346C22.3038 3.14906 22.7106 3.67994 23.1196 4.19733C23.4253 4.57718 23.7287 4.94083 24.0164 5.33574C24.3648 5.82301 24.6997 6.30872 25.0481 6.79397C25.4436 7.35519 25.837 7.91776 26.2145 8.49359C26.7922 9.34565 27.3384 10.1961 27.9137 11.0453C28.3385 11.6679 28.7633 12.2758 29.1724 12.8986H28.3969C27.6867 12.8836 26.9585 12.8231 26.246 12.8532C25.2751 12.9 24.2884 13.0056 23.3174 13.0823C22.0902 13.1879 20.8451 13.2032 19.6179 13.2032C19.1774 13.2032 18.7368 13.2648 18.2986 13.2951C17.7681 13.3252 17.2512 13.3556 16.7207 13.3706C16.0982 13.4007 15.4936 13.4158 14.871 13.4324C14.5226 13.4459 14.1585 13.4324 13.7787 13.4324V13.4282ZM31.175 20.4132V20.5505C31.1592 20.5505 31.1435 20.5656 31.1143 20.5656C31.0536 20.3532 30.9929 20.1253 30.9165 19.9125C30.7659 19.471 30.5973 19.0307 30.3254 18.6369C30.0197 18.2117 29.75 17.7712 29.4443 17.3311C29.3679 17.2239 29.2623 17.1335 29.1724 17.043C28.851 16.6932 28.5341 16.3282 28.125 16.0702C27.5213 15.693 26.8867 15.3676 26.228 15.0974C26.046 15.0222 25.8796 14.9302 25.6976 14.8246H26.0617L28.6554 14.7781C29.2151 14.7641 29.7635 14.7641 30.3231 14.7342C30.4602 14.7342 30.5344 14.7792 30.6108 14.8999C30.7479 15.128 30.8828 15.3555 31.0356 15.5847C31.0513 15.6133 31.0806 15.6584 31.0806 15.7052C31.0806 16.0401 31.0806 16.3887 31.0963 16.7234C31.112 17.0717 31.1435 17.4066 31.157 17.7561C31.157 18.1045 31.1255 18.4695 31.1413 18.8329C31.157 19.3501 31.1727 19.8826 31.1727 20.4121L31.175 20.4132ZM14.8552 15.3281C15.5677 15.2979 16.251 15.2525 16.9478 15.2211C17.4939 15.1907 18.0558 15.1757 18.5997 15.1455C18.8267 15.1305 19.0402 15.1168 19.2673 15.1455C19.0245 15.2678 18.7818 15.3899 18.5705 15.5407C18.2963 15.7232 18.0401 15.9659 17.7659 16.1635C17.4939 16.361 17.2512 16.604 17.0219 16.8618C16.7342 17.2102 16.4173 17.515 16.1117 17.8483C15.8981 18.0924 15.6576 18.3187 15.4756 18.5781C15.2171 18.9116 14.9901 19.2748 14.7474 19.6547C14.8238 18.2113 14.9159 16.7849 14.853 15.3267L14.8552 15.3281ZM24.7604 29.938C24.2726 30.0585 23.7737 30.1958 23.2725 30.2563C22.8477 30.3181 22.4071 30.303 21.9689 30.303C21.5778 30.3033 21.189 30.2875 20.8001 30.2563C20.3596 30.2107 19.9191 30.1657 19.4943 29.9684C19.1301 29.8007 18.7526 29.6499 18.3885 29.4676C18.0244 29.2849 17.658 29.0725 17.386 28.7378C17.1905 28.4946 16.9163 28.2973 16.6736 28.0844C16.7185 28.2672 16.8241 28.4193 16.9927 28.525C16.9163 28.6156 16.8106 28.5717 16.6578 28.3276C16.6129 28.3578 16.5679 28.3739 16.5365 28.3876C16.5837 28.2822 16.6264 28.1753 16.6736 28.0844C16.6129 27.9638 16.5365 27.8269 16.4758 27.7046C16.3541 27.5053 16.2379 27.3028 16.1274 27.0971C16.0982 27.0515 16.0982 27.0065 16.0667 26.9611C15.9903 26.8737 15.9206 26.7822 15.8532 26.6869C15.7318 26.5055 15.6262 26.3082 15.4756 26.1257C15.4756 26.1724 15.4913 26.2176 15.4913 26.2781C15.4756 26.2781 15.4599 26.2931 15.4599 26.2931L15.1407 25.5182C15.1272 25.5182 15.1272 25.5182 15.1115 25.5332L15.3834 26.5359C15.37 26.5359 15.3542 26.5509 15.3385 26.5509C15.2935 26.4905 15.2463 26.4302 15.2171 26.3547C15.1857 26.2327 15.0957 26.2327 15.0216 26.2781C14.9744 26.3082 14.9452 26.4149 14.9586 26.4606C15.069 26.7213 15.1859 26.9792 15.3093 27.234C15.3385 27.3259 15.3699 27.4014 15.4149 27.4936C15.4306 27.5237 15.4756 27.5536 15.4756 27.599C15.5363 27.7197 15.5812 27.8406 15.6576 27.9487C15.7947 28.1299 15.9453 28.3126 16.0824 28.4946C16.2195 28.6774 16.3386 28.8747 16.4623 29.0559C16.4758 29.0875 16.5207 29.0875 16.5342 29.1026C16.6129 29.3303 16.8691 29.4959 17.0534 29.4058C17.0983 29.7555 17.4759 29.8762 17.6288 30.2109C17.4799 30.1497 17.333 30.0838 17.1882 30.0133C17.1725 30.0284 17.1725 30.0434 17.159 30.0736C17.3388 30.1644 17.5209 30.2563 17.6872 30.3617C17.8401 30.4536 17.9929 30.5442 18.1277 30.6496C18.3098 30.8171 18.5233 30.9094 18.7795 30.9694C18.7661 30.9229 18.7503 30.9076 18.7503 30.9076C19.1751 31.1054 19.6156 31.3178 19.9483 31.4837C18.3705 31.5154 16.687 31.5457 14.9429 31.5761C14.9429 31.2882 14.9294 31.0135 14.9294 30.7254C14.9294 30.6047 14.9586 30.4975 14.9429 30.3756C14.8957 29.6787 14.8957 28.979 14.8058 28.2959C14.7159 27.5675 14.7159 26.8525 14.7316 26.1228C14.7451 25.7294 14.7159 25.319 14.7002 24.9239C14.7002 24.3928 14.7002 23.8758 14.7159 23.345C14.7159 23.2694 14.7474 23.209 14.7788 23.1326H14.8238C14.8373 23.1627 14.8238 23.209 14.853 23.224C14.8979 23.2708 14.9744 23.345 15.0036 23.3299C15.0957 23.2694 15.2328 23.209 15.2621 23.1173C15.334 22.9391 15.3699 22.7485 15.3699 22.5563C15.3699 22.4192 15.4284 22.3286 15.4891 22.2367C15.5205 22.1911 15.5363 22.1461 15.5677 22.0856C15.507 22.0389 15.4441 22.0088 15.3699 21.9485C15.4306 21.7811 15.4149 21.5835 15.6441 21.4932C15.6734 21.4781 15.6734 21.401 15.6891 21.3559C15.7048 21.2336 15.7183 21.0967 15.7341 20.976C15.7655 21.0225 15.7812 21.0362 15.8105 21.0666C15.818 21.0497 15.8278 21.034 15.8397 21.0198C15.8397 20.9607 15.8239 20.8385 15.8397 20.8385C16.0217 20.8083 15.9453 20.611 16.0375 20.5204C16.051 20.5038 16.0217 20.4586 16.0217 20.4283C16.0217 20.3982 16.0217 20.3532 16.0352 20.3532C16.2487 20.3065 16.2195 20.0785 16.3544 19.9734C16.4016 19.9417 16.4151 19.8976 16.4758 19.8208C16.5971 20.0334 16.3836 20.1404 16.3701 20.2914C16.6263 20.1404 16.7028 19.7756 16.5522 19.6684C16.6129 19.6232 16.6713 19.563 16.7185 19.5027C16.8848 19.32 17.0669 19.1528 17.2175 18.97C17.3253 18.8343 17.386 18.6673 17.4917 18.5313C17.5524 18.4544 17.6737 18.3942 17.7636 18.3477C18.0378 18.1966 18.2963 18.0305 18.4626 17.7714C18.4918 17.7411 18.5391 17.7107 18.584 17.6806C18.629 17.6505 18.7211 17.6505 18.7368 17.6053C18.7503 17.575 18.7054 17.4985 18.6761 17.4531C18.7346 17.4228 18.7953 17.3626 18.9166 17.3008C18.8717 17.3929 18.856 17.4531 18.8267 17.515L18.9009 17.5887C19.038 17.4833 19.2493 17.3626 19.3864 17.2704C19.3864 17.2569 19.31 17.1967 19.31 17.1967C19.2201 17.2416 19.0852 17.3172 18.9459 17.3776C18.9751 17.3322 18.9751 17.3021 18.9931 17.287C19.2043 17.1499 19.4179 17.0142 19.6449 16.9072C20.173 16.6629 20.7035 16.4253 21.2361 16.1938C21.3283 16.1482 21.4497 16.1788 21.5553 16.1788C21.6025 16.1788 21.6295 16.1788 21.6767 16.1635C21.9172 16.0882 22.1622 16.0111 22.4049 15.9506C22.5133 15.9208 22.6251 15.9056 22.7375 15.9055C23.1938 15.9205 23.6478 15.9205 24.1018 15.9511C24.2929 15.9677 24.4816 16.0082 24.6637 16.0716C24.8907 16.1484 25.1335 16.2543 25.347 16.3595C25.6029 16.4984 25.8512 16.651 26.0909 16.8164C26.5292 17.1043 26.9383 17.4239 27.3788 17.6822C27.8036 17.94 28.1362 18.2897 28.4104 18.685C28.7453 19.1557 29.1229 19.5805 29.2735 20.157L29.5028 21.1594C29.5477 21.3421 29.6533 21.5249 29.6061 21.7359C29.5334 22.1197 29.4682 22.5048 29.4106 22.8912C29.3814 23.0433 29.3499 23.1968 29.3657 23.3463C29.3949 23.8183 29.2128 24.2285 29.0308 24.6537C28.9701 24.7895 28.8779 24.9266 28.8038 25.0788C28.8173 25.0943 28.9094 25.1392 28.9251 25.1392L29.06 24.8664C29.0757 24.8664 29.0757 24.8664 29.0915 24.8828C29.015 25.0943 28.9543 25.3233 28.8779 25.5359C28.6981 26.0066 28.5161 26.492 28.2868 26.9474C28.1677 27.2052 27.9519 27.418 27.8014 27.6621C27.6508 27.8734 27.5294 28.1011 27.3788 28.2989C27.2417 28.4659 27.1046 28.6335 26.9225 28.754C26.5135 29.0588 26.0887 29.3615 25.6504 29.6045C25.3762 29.7719 25.0593 29.8641 24.7559 29.9392L24.7604 29.938ZM16.6758 29.1314L16.6601 29.1464C16.6286 29.1314 16.5836 29.1163 16.5522 29.0862L16.1881 28.5387C16.1588 28.4933 16.1431 28.4481 16.1588 28.3876C16.322 28.6418 16.4945 28.8898 16.6758 29.1314ZM26.1089 31.2111C26.7899 30.9231 27.3518 30.5141 27.8665 30.0421C27.9429 29.9668 28.0194 29.8911 28.1115 29.8297C28.7476 29.4346 29.2173 28.8884 29.6421 28.2809C30.1276 27.5823 30.4445 26.7921 30.8401 26.0488C30.8715 25.9872 30.9008 25.9283 30.93 25.8816C30.9008 27.6129 31.0985 29.3137 31.3256 31.0299C29.6106 31.0904 27.8688 31.1508 26.1089 31.2126V31.2111ZM41.4869 30.7557C41.4711 30.7872 41.4397 30.8171 41.4262 30.8474C41.4105 30.8171 41.4105 30.7721 41.3947 30.7103C41.3048 30.953 41.1071 30.8321 40.9722 30.8321C40.1518 30.8474 39.318 30.8474 38.4976 30.8474C37.7109 30.8474 36.9063 30.8474 36.1174 30.8613C35.8589 30.8613 35.587 30.9214 35.3285 30.938C34.7082 30.9668 34.0856 30.9836 33.463 30.9984C33.4181 30.9984 33.3731 30.9229 33.2967 30.8625C33.2697 30.9101 33.2405 30.9555 33.2068 30.9984C33.1888 30.9681 33.1596 30.938 33.1281 30.893C33.1169 30.9342 33.1012 30.9744 33.0832 31.0135H33.0405C33.009 30.802 32.9483 30.6047 32.9483 30.3918C32.9483 29.9367 32.9933 29.4813 33.009 29.0244C33.0247 28.8129 33.009 28.6156 33.009 28.4169C33.0697 28.4632 33.1146 28.4933 33.1753 28.5387C33.2068 28.4782 33.236 28.4333 33.2675 28.3876C33.2675 28.3876 33.236 28.3726 33.2068 28.3427C33.2337 28.3276 33.2652 28.2959 33.2652 28.2809C33.281 28.2353 33.3124 28.1903 33.3124 28.16C33.3124 28.053 33.281 27.9626 33.2652 27.8721C33.281 27.8721 33.2967 27.8721 33.3124 27.8556L33.4023 28.311H33.4473C33.3866 28.2054 33.5844 28.1148 33.4181 27.9925C33.4023 27.9775 33.4338 27.8871 33.4338 27.8406C33.3866 27.7498 33.3574 27.6592 33.3102 27.5374C33.3259 27.5223 33.3731 27.5073 33.4181 27.4918C33.3574 27.4619 33.3102 27.4317 33.2652 27.4167C33.4181 27.2796 33.4181 27.2038 33.281 27.0515C33.3124 27.038 33.3416 27.038 33.3416 27.0229C33.3416 26.886 33.3416 26.7496 33.3124 26.6141C33.2832 26.4603 33.3574 26.2794 33.1304 26.1875C33.1461 26.2342 33.1596 26.2644 33.1911 26.3082C33.1911 26.3082 33.1439 26.3244 33.0989 26.3547C32.9034 26.172 33.0247 25.9283 32.9798 25.655C33.0854 25.6867 33.1596 25.7168 33.236 25.7485C33.2068 25.64 33.1304 25.5191 33.0854 25.3822H33.0225V24.3789C33.0225 24.3953 33.1281 24.3953 33.1911 24.4105C33.1911 24.3953 33.2045 24.3802 33.2045 24.3638C33.1596 24.3038 33.0989 24.2433 33.036 24.1678L33.0674 24.1361C32.9483 23.9851 33.009 23.774 33.009 23.7275V22.6644C33.1596 22.8163 32.9326 23.0141 33.1596 23.1047V22.9537H33.1438C33.1281 22.7258 33.1281 22.4983 33.1146 22.2688H33.0854C33.0674 22.3005 33.0674 22.3156 33.054 22.3461H33.0225L33.1146 18.7161C33.2652 18.9138 33.4315 19.0973 33.5394 19.2923C33.8878 19.9316 34.3418 20.4791 34.7666 21.0553C35.1307 21.5575 35.4656 22.1032 35.7983 22.619C36.2073 23.2418 36.6029 23.8646 37.012 24.4861C37.3131 24.9581 37.6345 25.4285 37.9514 25.8852C38.2391 26.2942 38.5425 26.6894 38.846 27.0843C39.1022 27.4342 39.3764 27.7826 39.6349 28.1323C39.9383 28.5573 40.2417 28.9828 40.5452 29.393C40.6957 29.604 40.8621 29.8169 41.0284 30.0295C41.1205 30.1516 41.2576 30.2437 41.3475 30.3174C41.334 30.3174 41.3183 30.3174 41.2891 30.3026C41.3341 30.3642 41.3633 30.4094 41.3947 30.4397C41.5611 30.5303 41.5768 30.6222 41.4869 30.7591V30.7557ZM42.2601 26.9598V26.8543C42.2601 26.8842 42.2758 26.9281 42.2601 26.9598ZM42.7748 20.2642C42.7613 20.2642 42.6691 20.172 42.6556 20.157C42.6399 20.2022 42.6556 20.2476 42.6242 20.3094C42.6084 20.2637 42.5028 20.279 42.5028 20.2339C42.4871 20.4463 42.595 20.6586 42.577 20.8715C42.6242 20.84 42.8062 20.825 42.8512 20.7793C42.8669 20.7953 42.8894 20.8059 42.9119 20.8097C42.6084 21.0389 42.6849 21.2653 42.822 21.5244C42.8512 21.5849 42.9433 21.7056 42.8512 21.8278C42.822 21.858 42.8669 21.9485 42.8826 22.0252H42.9253V22.054L42.7882 22.1007C42.7613 22.054 42.577 21.9647 42.577 21.8865V22.6633C42.7298 22.7087 42.7298 22.9211 42.7905 23.0283C42.822 22.9815 42.8354 22.9512 42.8512 22.906L42.8669 22.9211C42.8535 23.0134 42.8332 23.1046 42.8062 23.1939C42.777 23.3299 42.7478 23.4522 42.732 23.5877C42.732 23.6028 42.7613 23.6342 42.7613 23.6495C42.5949 24.0294 42.6849 24.4537 42.6242 24.847C42.5792 25.1349 42.6242 25.4413 42.5949 25.7443C42.5635 26.0021 42.5028 26.2751 42.4421 26.5345C42.4264 26.5797 42.3972 26.5947 42.3208 26.6251C42.3522 26.4424 42.3365 26.3219 42.3073 26.1544C42.2893 26.1544 42.0915 26.0472 42.078 26.0472C42.078 26.2617 42.1971 26.5496 42.2443 26.7912C42.1971 26.7761 42.0173 26.6703 42.0016 26.6703C41.9701 26.853 41.9701 27.0953 41.9566 27.2931C41.9409 27.4455 41.8038 27.581 41.7881 27.7484C41.7881 27.8406 41.8937 27.9008 41.8802 28.053H41.9993C41.9993 27.7498 42.1364 27.4756 42.1364 27.1573H42.1837C42.1971 27.1872 42.2443 27.2176 42.2286 27.2326C42.1971 27.4001 42.1364 27.5823 42.1522 27.7498C42.1522 27.8406 42.2286 27.9312 42.1994 28.0379C42.1679 28.1298 42.1522 28.2204 42.1364 28.3564C42.1229 28.2809 42.1072 28.2508 42.1072 28.2054C42.0915 28.2054 41.9544 28.1903 41.9409 28.1903C41.9252 28.2809 42.0465 28.3715 42.0308 28.4481C42.0151 28.4632 41.9993 28.4632 41.9701 28.4782L41.4689 27.7484C41.0711 27.1689 40.677 26.5868 40.2867 26.0023C40.1833 25.8578 40.0911 25.7054 40.0125 25.5469C39.5431 24.7389 39.0213 23.9625 38.4504 23.2227C38.0099 22.6619 37.6615 22.0526 37.2524 21.4628C36.8748 20.9003 36.495 20.3532 36.1152 19.7906C35.9803 19.6095 35.8117 19.4423 35.6904 19.2445C35.297 18.6219 34.9487 17.9836 34.5531 17.3621C34.2204 16.8452 33.8563 16.3433 33.5079 15.8427C33.3866 15.6751 33.2652 15.4928 33.1438 15.3116C33.1252 15.2796 33.1152 15.2433 33.1146 15.2062C33.0832 14.8713 33.0517 14.538 33.036 14.2184C33.036 13.9152 33.0674 13.6118 33.0674 13.2924V13.0193C33.0674 12.9425 33.0832 12.8825 33.0832 12.8051C33.0967 12.7917 33.1124 12.7613 33.1281 12.7462C32.6876 12.7462 32.2336 12.7301 31.7931 12.7462C31.5054 12.7602 31.3548 12.6395 31.157 12.4253C30.5794 11.7737 30.1546 11.0289 29.6534 10.3305C29.1836 9.66234 28.7004 9.00807 28.2127 8.35492C27.8193 7.82449 27.4237 7.30844 27.0304 6.77599C26.5899 6.16847 26.1673 5.56207 25.7111 4.95432C25.1649 4.2261 24.603 3.49631 24.0434 2.76742C23.7826 2.43298 23.495 2.11472 23.2073 1.765C23.4028 1.79646 23.5871 1.8268 23.7692 1.84186L24.4974 1.88726C25.0435 1.93222 25.5897 1.96233 26.1336 2.0383C26.5899 2.09966 27.0439 2.19024 27.5159 2.26576C28.5161 2.43298 29.5028 2.70628 30.458 3.02567C31.0199 3.2084 31.5638 3.45046 32.11 3.67881C33.3394 4.17935 34.5081 4.78687 35.6589 5.42519C36.023 5.6223 36.2365 5.94101 36.5085 6.23027C36.9018 6.64046 37.2974 7.04929 37.6772 7.47454C38.1155 7.97508 38.5246 8.49224 38.9494 9.00807C39.327 9.46365 39.7225 9.91924 40.1024 10.3757C40.2238 10.5115 40.3159 10.6791 40.4193 10.8311C40.662 11.1963 40.9362 11.5458 41.1475 11.9398C41.3004 12.2293 41.3902 12.5624 41.4959 12.882C41.6487 13.3526 41.7993 13.808 41.9521 14.2789C42.0578 14.6286 42.1477 14.9936 42.2241 15.3568C42.2848 15.5996 42.2713 15.8578 42.3455 16.1003C42.4376 16.4199 42.3455 16.7688 42.4376 17.0881C42.4511 17.1185 42.4646 17.1648 42.4826 17.1949C42.5433 17.2556 42.5882 17.3158 42.4961 17.4064C42.4826 17.4215 42.4826 17.4819 42.4961 17.5287C42.5275 17.4983 42.5433 17.4682 42.5725 17.4215C42.5725 17.4529 42.5882 17.4682 42.5882 17.4819C42.5882 17.5424 42.5725 17.6037 42.5882 17.6646C42.5882 17.6943 42.6174 17.7384 42.6332 17.7698C42.6624 17.7384 42.6938 17.7233 42.7523 17.6777C42.8894 18.1951 42.9051 18.7111 42.9051 19.2418C42.9051 19.7439 42.9973 20.2446 42.786 20.7319C42.8309 20.5643 42.7253 20.4107 42.7703 20.2599L42.7748 20.2642ZM8.51481 18.7592C8.57774 18.8055 8.68338 18.8343 8.57775 18.9264C8.50133 19.0316 8.40917 19.1242 8.34849 19.2445C8.29005 19.3517 8.24285 19.3816 8.15295 19.3063C8.2657 19.1188 8.38642 18.9363 8.51481 18.7592ZM38.9988 34.6748C38.9988 34.7202 39.0145 34.7503 39.0145 34.7957C39.046 34.7353 39.046 34.7052 39.0595 34.6748H38.9988ZM35.9061 40.7343L33.2652 26.094C33.2203 26.0803 33.1596 26.0502 33.054 26.0185C33.0854 26.0803 33.0989 26.1257 33.1146 26.1709C33.191 26.1558 33.2203 26.1558 33.2517 26.1407C33.2517 26.1257 33.2517 26.1106 33.2675 26.094L35.9061 40.7357V40.7343ZM33.1753 22.7993C33.1596 22.8442 33.1596 22.8894 33.1596 22.9348C33.1596 22.8894 33.1596 22.8429 33.1776 22.7979L33.1753 22.7993ZM33.1911 23.1022C33.1753 23.1022 33.1753 23.1022 33.1596 23.0858V23.1009C33.1776 23.1159 33.1776 23.1159 33.1911 23.1009V23.1022ZM33.1596 23.2227V23.1159C33.1169 23.131 33.0719 23.131 33.009 23.1476C33.0854 23.1764 33.1618 23.1915 33.1618 23.2213L33.1596 23.2227Z" fill="white"/>
</svg>
